<svg width="120" height="142" viewBox="0 0 120 142" fill="none" xmlns="http://www.w3.org/2000/svg">
<path d="M90.1248 141.35C42.4221 142.171 0.5 139.707 0.5 139.707C7.45508 115.984 10.4287 40.5191 9.30422 1H118.345C120.76 52.4299 119.128 104.64 115.846 115.992C112.564 127.345 104.043 140.537 90.1248 141.358V141.35Z" fill="white" stroke="black" stroke-width="0.75" stroke-miterlimit="10"/>
<path d="M90.124 141.351C90.124 141.351 98.9699 134.878 99.3197 118.277C104.609 119.542 111.547 118.08 115.845 115.985C115.845 115.985 113.646 125.941 107.516 131.979C101.385 138.016 96.3794 141.261 90.124 141.351Z" fill="black" stroke="black" stroke-width="0.75" stroke-linecap="round" stroke-linejoin="round"/>
<path d="M69.4267 62.6813H20.4746C21.674 48.6841 22.1072 32.3458 21.5241 14.1182H69.9348C69.9348 14.1182 71.026 48.4705 69.4184 62.6813H69.4267Z" fill="#C1C1C1"/>
<path d="M105.068 109.717C93.1319 111.228 76.3564 110.76 76.3564 110.76C77.6642 96.9766 78.9219 83.2669 78.9636 70.8468C78.9636 70.8468 90.0251 71.4711 107.467 70.4854C107.767 83.2011 106.684 100.533 105.068 109.717Z" fill="#C1C1C1"/>
<path d="M100.595 21.9298C97.7713 22.1105 83.5029 22.3898 81.4206 22.1105C78.9551 21.8312 76.9727 20.3033 76.9727 18.1019C76.9727 15.9004 78.6302 14.0933 81.4206 14.0933C84.2109 14.0933 94.4645 14.0933 100.595 13.9126C103.36 13.7811 105.043 15.7197 105.043 17.9212C105.043 20.1226 103.419 21.749 100.595 21.9298Z" fill="black"/>
<path d="M40.7809 76.7529C38.2737 76.8597 25.613 76.8597 23.7638 76.5969C21.5815 76.334 19.849 75.0608 19.8823 73.27C19.9156 71.4793 21.4149 70.0418 23.8888 70.0829C26.3626 70.124 35.4584 70.2882 40.9058 70.239C43.363 70.1815 44.8207 71.775 44.7873 73.5658C44.754 75.3565 43.288 76.6461 40.7809 76.7529Z" fill="black"/>
<path d="M106.442 32.7569C100.428 33.4305 85.9516 33.7016 83.2695 33.7016C80.5875 33.7016 79.9378 33.7427 78.4218 33.7016C77.5722 33.7016 76.8809 32.913 76.8809 31.9437C76.8809 30.9744 77.5722 30.1859 78.4218 30.1859C78.4218 30.1859 79.5546 30.1859 83.2695 30.1859C95.1806 30.1859 106.442 29.2412 106.442 29.2412C107.292 29.2412 107.983 30.0298 107.983 30.9991C107.983 31.9684 107.292 32.7569 106.442 32.7569Z" fill="#C1C1C1"/>
<path d="M106.217 42.9671C100.204 43.6407 85.727 43.9117 83.0449 43.9117C80.3628 43.9117 79.7132 43.9528 78.1972 43.9117C77.3476 43.9117 76.6562 43.1232 76.6562 42.1621C76.6562 41.201 77.3476 40.4124 78.1972 40.4124C78.1972 40.4124 79.33 40.4124 83.0449 40.4124C94.956 40.4124 106.217 39.4678 106.217 39.4678C107.067 39.4678 107.758 40.2564 107.758 41.2174C107.758 42.1785 107.067 42.9671 106.217 42.9671Z" fill="#C1C1C1"/>
<path d="M67.3772 89.2048C61.3717 89.7059 46.9617 89.5087 44.2963 89.4183C41.6309 89.328 40.9812 89.3526 39.4736 89.2541C38.6323 89.2294 37.9659 88.3833 37.9992 87.3812C38.0326 86.3791 38.7489 85.5823 39.5985 85.6069C39.5985 85.6069 40.723 85.648 44.4212 85.7712C56.2657 86.1655 67.5021 85.5576 67.5021 85.5576C68.3434 85.5823 69.0098 86.4283 68.9764 87.4305C68.9431 88.4326 68.2268 89.2294 67.3772 89.2048Z" fill="#C1C1C1"/>
<path d="M66.7024 100.985C60.6969 101.486 46.2869 101.289 43.6215 101.199C40.9561 101.108 40.3064 101.133 38.7988 101.034C37.9575 101.01 37.2911 100.164 37.3244 99.1615C37.3578 98.1593 38.0741 97.3625 38.9237 97.3872C38.9237 97.3872 40.0482 97.4282 43.7464 97.5515C55.5909 97.9457 66.8273 97.3379 66.8273 97.3379C67.6686 97.3625 68.3349 98.2086 68.3016 99.2108C68.2683 100.213 67.552 101.01 66.7024 100.985Z" fill="#C1C1C1"/>
<path d="M65.6697 114.3C55.716 114.669 31.7772 114.16 27.3459 114.012C22.9147 113.864 21.8485 113.873 19.333 113.749C17.9337 113.7 16.8092 112.846 16.8425 111.844C16.8758 110.841 18.0503 110.061 19.458 110.102C19.458 110.102 21.3321 110.168 27.4709 110.365C47.1533 111.022 65.7946 110.652 65.7946 110.652C67.2023 110.702 68.3185 111.556 68.2851 112.558C68.2518 113.56 67.0774 114.341 65.6697 114.3Z" fill="#C1C1C1"/>
<path d="M63.6873 126.417C53.7336 126.786 29.7948 126.277 25.3635 126.129C20.9323 125.981 19.8661 125.99 17.3506 125.866C15.9513 125.817 14.8268 124.963 14.8601 123.961C14.8934 122.959 16.0679 122.178 17.4755 122.219C17.4755 122.219 19.3497 122.285 25.4885 122.482C45.1709 123.139 63.8122 122.77 63.8122 122.77C65.2199 122.819 66.336 123.673 66.3027 124.675C66.2694 125.678 65.095 126.458 63.6873 126.417Z" fill="#C1C1C1"/>
<path d="M92.0237 54.6807C85.8016 55.2064 81.0289 55.0257 78.0136 54.9271C77.164 54.9271 76.4727 54.1549 76.4727 53.2103C76.4727 52.2656 77.164 51.4935 78.0136 51.4935C83.1695 51.6085 88.0256 51.6003 92.0237 51.2471C92.8733 51.2471 93.5647 52.0192 93.5647 52.9639C93.5647 53.9085 92.8733 54.6807 92.0237 54.6807Z" fill="#C1C1C1"/>
<path d="M24.2551 98.5126C24.8132 95.4651 24.9381 91.7769 24.8715 87.8012C24.8715 87.7272 24.8715 87.6697 24.8715 87.6286C24.8715 87.5876 24.8465 87.5465 24.8132 87.4972C24.7798 87.4479 24.7215 87.4315 24.6466 87.4233L23.2139 87.3411C22.5892 87.3083 22.1477 87.3329 21.8729 87.3165C21.7812 87.834 21.9728 86.6429 21.7396 88.2037C21.498 89.7644 21.3231 90.5447 21.2065 90.5365C20.94 90.5201 20.7068 90.4133 20.5152 90.208C20.3153 90.0026 20.1737 89.7644 20.082 89.4769C19.9904 89.1976 19.9238 88.9347 19.8821 88.6883C19.8405 88.4501 19.8238 88.2612 19.8322 88.1215C19.8655 87.4726 20.2236 85.5011 20.3319 85.2383H20.3986C20.3986 85.2383 20.4402 85.2383 20.4652 85.2383C22.5392 85.534 23.1806 85.649 26.2958 85.7886C29.411 85.9283 31.1852 85.8051 33.2759 85.7476H33.3425C33.3425 85.7476 33.3842 85.7476 33.4091 85.7476C33.4924 86.0186 33.4258 87.8094 33.3925 88.4583C33.3925 88.5897 33.3508 88.7787 33.2842 89.0087C33.2176 89.2469 33.1259 89.5015 33.001 89.7726C32.8761 90.0437 32.6512 90.2901 32.4346 90.4708C32.218 90.6515 31.9765 90.7337 31.7099 90.7172C31.5933 90.7172 31.5017 89.9204 31.4434 88.3433C31.3851 86.7661 31.485 88.1708 31.4517 87.6451C31.1769 87.6287 29.6609 87.6862 29.0279 87.6451L27.5952 87.5629C27.4869 87.5629 27.412 87.5876 27.3786 87.6451C27.3453 87.7026 27.3287 87.7929 27.3203 87.9162C27.3536 91.9822 27.1954 95.6212 26.7039 98.5044C26.7039 98.6112 26.7039 98.6934 26.7039 98.7509C26.7039 98.8084 26.7289 98.8823 26.7706 98.9562C26.8039 99.0384 26.8705 99.0466 26.9622 99.0876C27.0538 99.1287 27.4286 99.0959 27.5785 99.1041C27.9034 99.1205 28.1283 99.1287 28.3532 99.2273C28.5781 99.3259 28.6864 99.4573 28.678 99.6216C28.6281 100.542 28.4781 101.1 28.2366 101.289C27.1871 101.158 26.0959 101.223 25.3463 101.182C24.5966 101.141 23.697 101.232 22.6142 101.248C22.3976 101.026 22.3143 100.459 22.3643 99.5394C22.3726 99.3751 22.4976 99.2519 22.7308 99.1862C22.964 99.1205 23.2472 99.0876 23.5721 99.1041C23.847 99.1205 24.0302 99.0712 24.1218 98.9644C24.2134 98.8576 24.2634 98.6934 24.2801 98.488L24.2551 98.5126Z" fill="black"/>
<path d="M63.1619 48.7256C63.1619 43.6492 58.6307 31.6562 52.0588 31.6562C46.0116 31.6562 41.447 42.2117 41.447 42.2117C41.447 42.2117 39.3813 37.2091 35.5165 37.2091C30.4522 37.2091 27.6035 45.366 27.6035 48.7174H63.1619V48.7256Z" fill="white"/>
<path d="M36.9407 33.3974C39.0982 33.3974 40.8472 31.6726 40.8472 29.5449C40.8472 27.4172 39.0982 25.6924 36.9407 25.6924C34.7832 25.6924 33.0342 27.4172 33.0342 29.5449C33.0342 31.6726 34.7832 33.3974 36.9407 33.3974Z" fill="white"/>
<path d="M103.777 96.8033C103.777 93.5669 100.887 85.9111 96.6885 85.9111C92.8319 85.9111 89.9166 92.6469 89.9166 92.6469C89.9166 92.6469 88.6006 89.4515 86.1351 89.4515C82.9032 89.4515 81.0791 94.6594 81.0791 96.7951H103.777V96.8033Z" fill="white"/>
<path d="M87.0432 87.0206C88.4187 87.0206 89.5337 85.9209 89.5337 84.5645C89.5337 83.208 88.4187 82.1084 87.0432 82.1084C85.6678 82.1084 84.5527 83.208 84.5527 84.5645C84.5527 85.9209 85.6678 87.0206 87.0432 87.0206Z" fill="white"/>
</svg>
