<svg width="20" height="20" viewBox="0 0 20 20" fill="none" xmlns="http://www.w3.org/2000/svg">
<rect width="20" height="20" rx="10" fill="#FEFFFE"/>
<path fill-rule="evenodd" clip-rule="evenodd" d="M0 10C0 4.47768 4.47768 0 10 0C15.5223 0 20 4.47768 20 10C20 15.5223 15.5223 20 10 20C4.47768 20 0 15.5223 0 10ZM1.69643 10C1.69643 14.5848 5.41518 18.3036 10 18.3036C14.5848 18.3036 18.3036 14.5848 18.3036 10C18.3036 5.41518 14.5848 1.69643 10 1.69643C5.41518 1.69643 1.69643 5.41518 1.69643 10ZM13.015 7H13.8569C13.9735 7 14.0417 7.11636 13.9717 7.1997L10.1916 11.7912C10.1388 11.8558 10.0691 11.9084 9.98844 11.9447C9.90775 11.9811 9.81834 12 9.72762 12C9.63691 12 9.5475 11.9811 9.46681 11.9447C9.38612 11.9084 9.31647 11.8558 9.26363 11.7912L7.02715 9.07403C6.95894 8.9907 7.02715 8.87434 7.14382 8.87434H7.98564C8.17052 8.87434 8.34283 8.95296 8.45053 9.08347L9.72852 10.637L12.5501 7.20913C12.6578 7.07705 12.832 7 13.015 7Z" fill="#020202"/>
</svg>
