<svg width="28" height="30" viewBox="0 0 28 30" fill="none" xmlns="http://www.w3.org/2000/svg">
<path fill-rule="evenodd" clip-rule="evenodd" d="M17.3771 0.185547C17.999 0.185708 18.605 0.381525 19.1094 0.745262C19.6138 1.109 19.991 1.62221 20.1875 2.21221L20.9919 4.62999H25.8512C26.2441 4.62999 26.6209 4.78608 26.8988 5.06391C27.1766 5.34174 27.3327 5.71856 27.3327 6.11147C27.3327 6.50439 27.1766 6.88121 26.8988 7.15904C26.6209 7.43687 26.2441 7.59295 25.8512 7.59295L25.8468 7.69814L24.5623 25.6878C24.4821 26.8087 23.9804 27.8576 23.1579 28.6234C22.3355 29.3892 21.2535 29.815 20.1297 29.8152H7.86898C6.74521 29.815 5.66321 29.3892 4.84078 28.6234C4.01835 27.8576 3.51655 26.8087 3.43639 25.6878L2.15194 7.69666C2.14926 7.66215 2.14778 7.62756 2.1475 7.59295C1.75458 7.59295 1.37776 7.43687 1.09993 7.15904C0.8221 6.88121 0.666016 6.50439 0.666016 6.11147C0.666016 5.71856 0.8221 5.34174 1.09993 5.06391C1.37776 4.78608 1.75458 4.62999 2.1475 4.62999H7.00676L7.8112 2.21221C8.00779 1.62197 8.38518 1.10859 8.88987 0.744829C9.39455 0.38107 10.0009 0.185397 10.6231 0.185547H17.3771ZM9.5549 12.0374C9.19204 12.0374 8.84181 12.1707 8.57065 12.4118C8.29949 12.6529 8.12625 12.9852 8.08379 13.3455L8.07342 13.5189V22.4078C8.07384 22.7854 8.21843 23.1486 8.47764 23.4231C8.73686 23.6977 9.09113 23.8629 9.46808 23.8851C9.84503 23.9072 10.2162 23.7845 10.5058 23.5422C10.7953 23.2998 10.9814 22.9561 11.026 22.5811L11.0364 22.4078V13.5189C11.0364 13.126 10.8803 12.7491 10.6025 12.4713C10.3246 12.1935 9.94782 12.0374 9.5549 12.0374ZM18.4438 12.0374C18.0509 12.0374 17.6741 12.1935 17.3962 12.4713C17.1184 12.7491 16.9623 13.126 16.9623 13.5189V22.4078C16.9623 22.8007 17.1184 23.1775 17.3962 23.4553C17.6741 23.7332 18.0509 23.8892 18.4438 23.8892C18.8367 23.8892 19.2135 23.7332 19.4914 23.4553C19.7692 23.1775 19.9253 22.8007 19.9253 22.4078V13.5189C19.9253 13.126 19.7692 12.7491 19.4914 12.4713C19.2135 12.1935 18.8367 12.0374 18.4438 12.0374ZM17.3771 3.14851H10.6216L10.1282 4.62999H17.8705L17.3771 3.14851Z" fill="#020202"/>
</svg>
