<svg width="24" height="24" viewBox="0 0 24 24" fill="none" xmlns="http://www.w3.org/2000/svg">
<path d="M21.707 13.2334C19.53 15.3141 15.765 16.355 12 16.355C8.235 16.355 4.47 15.3141 2.293 13.2334L2 12.9534V19.0885C2 19.5954 2.21071 20.0816 2.58579 20.4401C2.96086 20.7986 3.46957 21 4 21H20C20.5304 21 21.0391 20.7986 21.4142 20.4401C21.7893 20.0816 22 19.5954 22 19.0885V12.9534L21.707 13.2334Z" fill="#FEFFFE"/>
<path d="M20 6.82308H17V5.86731C17 5.10685 16.6839 4.37754 16.1213 3.83981C15.5587 3.30209 14.7956 3 14 3H10C9.20435 3 8.44129 3.30209 7.87868 3.83981C7.31607 4.37754 7 5.10685 7 5.86731V6.82308H4C3.46957 6.82308 2.96086 7.02447 2.58579 7.38295C2.21071 7.74144 2 8.22764 2 8.73461V10.2505L3.707 11.882C7.35 15.361 16.65 15.361 20.293 11.882L22 10.2505V8.73461C22 8.22764 21.7893 7.74144 21.4142 7.38295C21.0391 7.02447 20.5304 6.82308 20 6.82308ZM12 12.5577C11.8022 12.5577 11.6089 12.5016 11.4444 12.3966C11.28 12.2916 11.1518 12.1423 11.0761 11.9677C11.0004 11.793 10.9806 11.6009 11.0192 11.4155C11.0578 11.2301 11.153 11.0598 11.2929 10.9261C11.4327 10.7924 11.6109 10.7014 11.8049 10.6645C11.9989 10.6276 12.2 10.6466 12.3827 10.7189C12.5654 10.7912 12.7216 10.9138 12.8315 11.0709C12.9414 11.2281 13 11.4129 13 11.6019C13 11.8554 12.8946 12.0985 12.7071 12.2778C12.5196 12.457 12.2652 12.5577 12 12.5577ZM15 6.82308H9V5.86731C9 5.61382 9.10536 5.37072 9.29289 5.19148C9.48043 5.01223 9.73478 4.91154 10 4.91154H14C14.2652 4.91154 14.5196 5.01223 14.7071 5.19148C14.8946 5.37072 15 5.61382 15 5.86731V6.82308Z" fill="#FEFFFE"/>
</svg>
