<svg width="30" height="40" viewBox="0 0 30 40" fill="none" xmlns="http://www.w3.org/2000/svg">
<path fill-rule="evenodd" clip-rule="evenodd" d="M27 37.348L18.9043 32.286L16.9482 31.0552L15 29.7784L3 37.348L12.8787 31.1165C13.5091 30.7264 14.3262 30.2034 15 29.7784C15.81 30.3092 16.5555 30.7979 17.2026 31.222L27 37.348ZM30 2.67477C30 1.97172 30 0 30 0C30 0 27.8376 0.0239732 27.042 0.0239732L3 0.0239115C2.20435 0.0239115 1.90735e-06 0.0239115 1.90735e-06 0.0239115C1.90735e-06 0.0239115 1.90735e-06 1.97172 1.90735e-06 2.67477L1.90735e-06 37.348C0.000307083 37.8326 0.15098 38.3079 0.43564 38.7222C0.720301 39.1365 1.12805 39.4739 1.61456 39.6977C2.10106 39.9216 2.64771 40.0233 3.19505 39.9917C3.74239 39.9602 4.26948 39.7967 4.719 39.519L14.571 33.4247C14.6968 33.3472 14.8466 33.3056 15 33.3056C15.1534 33.3056 15.3032 33.3472 15.429 33.4247L25.281 39.5217C25.7309 39.7996 26.2586 39.9632 26.8065 39.9945C27.3543 40.0258 27.9014 39.9236 28.3881 39.6992C28.8748 39.4747 29.2825 39.1365 29.5667 38.7215C29.8509 38.3064 30.0008 37.8304 30 37.3453L30 2.67477Z" fill="#7EFE92"/>
</svg>
