<svg width="20" height="21" viewBox="0 0 20 21" fill="none" xmlns="http://www.w3.org/2000/svg">
<path fill-rule="evenodd" clip-rule="evenodd" d="M6.59215 3.18684C8.42498 2.3185 10.5195 2.17623 12.4533 2.78871C14.3871 3.4012 16.0162 4.72286 17.0122 6.48715H16.3108C15.6095 6.48715 15.1085 6.78718 15.1085 7.48725C15.1085 7.68727 15.1085 9.48744 13.1047 9.48744C11.1008 9.48744 11.1008 7.68727 11.1008 7.48725C11.1008 5.98711 10.2993 5.78709 9.39754 5.48706L7.99485 5.08702C6.99292 4.58697 6.69234 3.8869 6.49196 3.18684H6.59215ZM3.98714 2.48677C2.82187 3.36928 1.86432 4.49576 1.18174 5.78709C0.347121 7.34675 -0.0583127 9.09941 0.00676443 10.8664C0.0718416 12.6335 0.605102 14.3517 1.5522 15.846C2.49929 17.3403 3.82636 18.5572 5.39815 19.3727C6.96993 20.1883 8.73024 20.5733 10.4997 20.4885C12.0623 20.4076 13.5841 19.9625 14.9434 19.1889C16.3027 18.4153 17.4615 17.3347 18.3272 16.0337C19.1928 14.7326 19.7411 13.2472 19.9281 11.6966C20.1152 10.146 19.9358 8.57318 19.4044 7.10419C18.873 5.6352 18.0042 4.31087 16.8678 3.2373C15.7314 2.16373 14.3588 1.37075 12.8601 0.921898C11.3615 0.473047 9.77829 0.380798 8.23746 0.652543C6.69664 0.924288 5.24099 1.55247 3.98714 2.48677ZM17.413 13.5878L16.6114 13.4878H16.411C15.5076 13.4878 14.6411 13.8461 14.0022 14.4838C13.3634 15.1214 13.0045 15.9863 13.0045 16.8882V17.8882C13.9873 17.4973 14.8828 16.916 15.6394 16.178C16.3961 15.4399 16.9988 14.5596 17.413 13.5878ZM9.9987 18.4883C8.5941 18.4834 7.21546 18.1101 6.00089 17.4059C4.78632 16.7016 3.77847 15.6912 3.07832 14.4757C2.37816 13.2603 2.01027 11.8825 2.01152 10.4805C2.01276 9.07846 2.38309 7.70135 3.0854 6.48715C4.08733 6.9872 4.4881 7.9873 4.88887 8.88738L5.59022 9.98749C6.09118 10.6876 6.59215 10.9876 7.1933 11.3876C7.69427 11.6877 8.19523 11.9877 8.79639 12.6877C10.1991 14.4879 10.1991 16.9882 10.0989 18.4883H9.9987Z" fill="#FEFFFE"/>
</svg>
