<svg width="160" height="40" viewBox="0 0 160 40" fill="none" xmlns="http://www.w3.org/2000/svg">
<path d="M8.5713 19.6211C9.81322 20.2792 10.5462 21.4757 10.5462 22.9713C10.5462 25.2047 8.53058 26.9994 6.04673 26.9994H0V13.0405H5.88386C8.34734 13.0405 10.1797 14.576 10.1797 16.6299C10.1797 17.8264 9.56891 18.9431 8.5713 19.6211ZM7.18686 17.0886C7.18686 16.2111 6.55572 15.6129 5.59883 15.6129H3.01319V18.5842H5.59883C6.55572 18.5842 7.18686 17.966 7.18686 17.0886ZM5.7617 24.2276C6.77967 24.2276 7.45153 23.5695 7.45153 22.6522C7.45153 21.7548 6.77967 21.0968 5.7617 21.0968H3.01319V24.2276H5.7617Z" fill="url(#paint0_linear_2507_1707)"/>
<path d="M22.1912 26.9795L21.1936 24.3472H15.5337L14.5565 26.9795H11.2786L16.8774 13.0205H19.7888L25.5505 26.9795H22.1912ZM18.3637 16.7097L16.4906 21.715H20.2367L18.3637 16.7097Z" fill="url(#paint1_linear_2507_1707)"/>
<path d="M30.9004 24.1877H37.0286V26.9795H26.2585V26.5408L32.2034 15.8323H26.5843V13.0205H36.7843V13.5789L30.9004 24.1877Z" fill="url(#paint2_linear_2507_1707)"/>
<path d="M48.6743 26.9795L47.6767 24.3472H42.0168L41.0396 26.9795H37.7617L43.3605 13.0205H46.2719L52.0336 26.9795H48.6743ZM44.8468 16.7097L42.9737 21.715H46.7198L44.8468 16.7097Z" fill="url(#paint3_linear_2507_1707)"/>
<path d="M80.479 0.0690414C77.6336 0.334343 75.0033 1.21608 72.6679 2.69865C71.9267 3.16683 70.7151 4.06417 70.6195 4.22023C70.5876 4.27485 70.2847 4.53235 69.958 4.79765C69.0493 5.51553 69.0334 5.60136 69.9181 5.02394C71.4724 4.00955 73.2498 3.28387 75.1308 2.89372C76.0474 2.69865 76.2945 2.68304 77.9683 2.67524C79.5943 2.67524 79.9051 2.69865 80.7181 2.86251C86.5047 4.02516 91.0479 8.19975 92.7058 13.8803C93.0963 15.2302 93.0565 15.2537 92.3551 14.0286C91.1754 11.9998 90.8487 11.4848 90.3704 10.845C86.6243 5.89787 80.2957 3.32288 74.1106 4.23583C68.2762 5.09416 63.2787 8.80058 60.9114 14.0364C60.0108 16.034 59.5405 18.0315 59.4608 20.271C59.2456 26.17 62.0831 31.5619 67.1523 34.886C68.4834 35.7677 70.7869 36.7431 72.907 37.3361C72.9708 37.3517 72.5962 37.1488 72.0701 36.8757C70.9543 36.2983 70.6115 36.0876 69.7985 35.4868C67.5349 33.7936 65.7734 31.3824 64.8648 28.7216C63.1352 23.6341 64.3228 18.0627 68.0371 13.8491C68.4436 13.3887 68.8102 12.9908 68.858 12.9674C68.9696 12.8972 68.9616 12.905 68.2602 13.9506C67.0487 15.7452 66.1002 18.0393 65.6858 20.1851C65.3988 21.6521 65.3351 23.7745 65.5343 25.2649C66.3234 31.359 70.4521 36.6104 76.1749 38.7953C78.1835 39.56 79.9131 39.9189 81.9536 39.9891C87.9554 40.1998 93.6304 37.3361 96.9062 32.4436C98.2931 30.3758 99.2177 27.9491 99.5684 25.46C99.7756 23.993 99.7119 21.7067 99.409 19.9979L99.1699 18.6714L99.122 20.1929C99.0742 21.5897 98.9706 22.4324 98.7315 23.3297C97.241 28.9947 92.5783 33.1147 86.4968 34.1291C85.3251 34.3242 83.2528 34.3632 82.0173 34.2071C80.9812 34.0745 79.4747 33.7623 79.2117 33.6219C79.132 33.5751 79.945 33.5517 81.3558 33.5595C83.8107 33.5751 84.2889 33.5361 85.9388 33.1459C89.2306 32.3734 91.9087 30.8752 94.268 28.4953C95.6549 27.0986 96.5316 25.8657 97.4243 24.0554C98.054 22.7835 98.5243 21.4102 98.7793 20.0447C98.8909 19.4595 99.0105 18.8742 99.0503 18.7494C99.1699 18.3748 99.0902 15.2615 98.9387 14.3797C98.2054 9.90861 95.9657 6.17098 92.4188 3.49455C89.0712 0.958582 84.6237 -0.321108 80.479 0.0690414ZM86.6641 1.94176C90.8726 3.3463 94.3557 6.32704 96.2686 10.1661C98.4764 14.5982 98.4605 19.7092 96.2208 24.1335C94.8738 26.8021 92.921 28.9791 90.3624 30.6411C89.677 31.0937 88.6727 31.6633 88.5691 31.6633C88.5372 31.6633 88.9357 31.3824 89.4538 31.0469C94.1723 27.9803 96.9301 22.5885 96.7149 16.8767C96.6113 14.2861 96.0932 12.2495 94.9455 9.93202C94.0608 8.14513 93.2159 6.97468 91.8131 5.57015C90.211 3.97053 88.4097 2.76887 86.4171 1.97297C85.7396 1.69986 85.5801 1.62184 85.6758 1.62184C85.6997 1.62184 86.146 1.76229 86.6641 1.94176ZM82.0492 1.98077C82.0253 2.00418 81.9536 2.01198 81.8978 1.98857C81.834 1.96516 81.8579 1.94176 81.9456 1.94176C82.0333 1.93395 82.0811 1.95736 82.0492 1.98077ZM83.1093 2.16805C88.9437 3.52577 93.5586 7.92665 95.065 13.5682C95.4955 15.1912 95.5752 15.8623 95.5752 17.735C95.5752 19.5531 95.5034 20.1071 95.0969 21.7145C93.9651 26.1076 90.7211 30.0013 86.5765 31.9286C85.5881 32.389 85.3251 32.4514 86.0982 32.0301C89.0792 30.4383 91.2551 28.1988 92.7217 25.2259C93.8535 22.9162 94.3636 20.7001 94.3557 18.0471C94.3557 14.13 93.176 10.7045 90.7689 7.59112C90.1712 6.81863 88.6169 5.31265 87.796 4.69621C86.162 3.49455 84.0658 2.49577 82.2724 2.06661L82.113 2.02759L82.2724 2.01979C82.3601 2.01979 82.7347 2.08221 83.1093 2.16805ZM78.6538 5.13318C79.8493 5.25803 81.3319 5.56234 82.4318 5.92128C83.3723 6.2256 85.7475 7.32582 86.1381 7.63014C86.2497 7.71597 85.891 7.57552 85.341 7.32582C82.8064 6.14757 80.5747 5.695 77.6973 5.78083C75.6728 5.84325 74.007 6.17098 72.1339 6.88885C68.6109 8.23877 65.5343 10.7669 63.5736 13.9271C62.2983 15.9871 61.4375 18.4919 61.1904 20.8874C61.0549 22.2061 61.0868 23.1737 61.3099 24.9918C61.3418 25.2805 61.3418 25.2883 61.2701 25.0698C60.8477 23.8135 60.6643 20.8718 60.9035 19.0459C61.7005 12.905 65.8292 7.90324 71.7194 5.92128C73.9273 5.1878 76.3503 4.90689 78.6538 5.13318ZM80.7739 6.81082C83.2209 7.12294 85.5323 7.97347 87.501 9.26876C88.6328 10.01 89.0872 10.4158 88.0749 9.77596C86.5446 8.80839 84.8389 8.13733 82.9499 7.74718C81.7304 7.49749 79.395 7.39604 78.1198 7.5443C73.2976 8.09831 68.9537 10.6031 66.0365 14.4968C63.1591 18.3436 62.1628 23.3141 63.3823 27.7618C63.5815 28.5109 63.4381 28.269 63.1511 27.3873C60.2738 18.4841 65.8372 9.0971 75.2185 7.04491C76.8445 6.68597 79.0762 6.60014 80.7739 6.81082ZM81.7384 8.41043C86.2258 8.87861 90.0675 11.0869 92.5225 14.5904C93.1521 15.4955 93.2239 15.7765 93.2876 17.735C93.3195 18.882 93.3036 19.4517 93.2 20.2476C92.6739 24.2739 90.6335 27.8789 87.4851 30.368C85.5004 31.9286 82.91 33.0055 80.3515 33.341C78.7654 33.5517 78.5342 33.5126 76.8843 32.7402C72.5803 30.7348 69.3841 26.9737 68.2523 22.5729C67.8856 21.1527 67.782 20.1461 67.8298 18.5933C67.8936 16.4709 68.2602 14.8713 69.0812 13.1312C69.408 12.429 69.7188 12.1169 70.9383 11.2741C74.0867 9.08929 78.0719 8.02809 81.7384 8.41043ZM67.3038 17.5555C67.2799 17.618 67.2559 17.5946 67.2559 17.5087C67.248 17.4229 67.2719 17.3761 67.2958 17.4073C67.3197 17.4307 67.3277 17.5009 67.3038 17.5555ZM67.1842 19.319C67.1444 21.1059 67.2559 22.0423 67.6784 23.5638C69.3522 29.5409 74.6924 34.1135 81.3398 35.2683C82.6789 35.4946 85.4845 35.518 86.7359 35.3073C89.932 34.7611 92.7935 33.4346 94.81 31.5541C95.081 31.3044 95.3042 31.1249 95.3042 31.1717C95.3042 31.281 93.6861 32.8104 93.1123 33.2317C90.8008 34.9562 88.0191 36.0642 85.1019 36.4232C84.1295 36.5402 82.1449 36.5168 81.1007 36.3841C77.4901 35.916 74.1744 34.3086 71.6158 31.7648C70.2369 30.4071 69.408 29.26 68.5551 27.5668C67.3835 25.2337 66.8654 22.8616 66.9531 20.232C66.985 19.241 67.1284 17.774 67.2002 17.774C67.2081 17.774 67.2002 18.4685 67.1842 19.319ZM66.2676 20.4817C66.2437 20.5597 66.2278 20.5129 66.2278 20.388C66.2278 20.2554 66.2437 20.2008 66.2676 20.2476C66.2835 20.3022 66.2835 20.4114 66.2676 20.4817ZM66.2915 22.6275C66.6821 27.4575 69.3123 31.8662 73.5048 34.7221C75.3301 35.9628 77.7292 36.9616 79.937 37.3907C81.4355 37.6872 82.5035 37.7731 83.986 37.7263C87.2779 37.6092 90.1313 36.7041 92.8732 34.8938C93.726 34.3242 93.7419 34.3242 93.3115 34.7065C92.7377 35.2215 91.6616 35.9706 90.745 36.4856C88.8162 37.5858 86.5446 38.3349 84.3049 38.6002C83.3325 38.725 81.3478 38.7016 80.2957 38.569C74.1265 37.7809 68.9776 33.5595 67.0089 27.6994C66.3473 25.7253 66.1241 24.2973 66.148 22.1827C66.156 21.4492 66.172 21.0123 66.1879 21.2073C66.1959 21.4024 66.2437 22.0423 66.2915 22.6275Z" fill="url(#paint4_linear_2507_1707)"/>
<path d="M113.227 27.2586C109.949 27.2586 107.689 25.4639 107.689 22.4727H110.804C110.804 23.8088 111.944 24.4669 113.207 24.4669C114.367 24.4669 115.507 23.8686 115.507 22.8317C115.507 21.7349 114.204 21.4358 112.657 21.0968C110.499 20.5783 107.893 19.9601 107.893 16.949C107.893 14.2768 109.908 12.7613 113.064 12.7613C116.342 12.7613 118.195 14.4762 118.195 17.268H115.161C115.161 16.0516 114.143 15.4933 112.983 15.4933C111.985 15.4933 110.987 15.912 110.987 16.8293C110.987 17.8064 112.209 18.1056 113.736 18.4645C115.894 19.0029 118.622 19.661 118.622 22.7918C118.622 25.8029 116.179 27.2586 113.227 27.2586Z" fill="url(#paint5_linear_2507_1707)"/>
<path d="M132.978 26.9795H129.212L124.183 20.1795V26.9795H121.109V13.0205H124.183V19.4815L128.866 13.0205H132.449L127.603 19.7208L132.978 26.9795Z" fill="url(#paint6_linear_2507_1707)"/>
<path d="M134.47 26.9795V13.0205H137.544V26.9795H134.47Z" fill="url(#paint7_linear_2507_1707)"/>
<path d="M143.886 24.1877H149.363V26.9795H140.812V13.0205H143.886V24.1877Z" fill="url(#paint8_linear_2507_1707)"/>
<path d="M154.523 24.1877H160V26.9795H151.449V13.0205H154.523V24.1877Z" fill="url(#paint9_linear_2507_1707)"/>
<defs>
<linearGradient id="paint0_linear_2507_1707" x1="72.5448" y1="20" x2="101.697" y2="20" gradientUnits="userSpaceOnUse">
<stop stop-color="#4DC760"/>
<stop offset="1" stop-color="#FFF854"/>
</linearGradient>
<linearGradient id="paint1_linear_2507_1707" x1="72.5448" y1="20" x2="101.697" y2="20" gradientUnits="userSpaceOnUse">
<stop stop-color="#4DC760"/>
<stop offset="1" stop-color="#FFF854"/>
</linearGradient>
<linearGradient id="paint2_linear_2507_1707" x1="72.5448" y1="20" x2="101.697" y2="20" gradientUnits="userSpaceOnUse">
<stop stop-color="#4DC760"/>
<stop offset="1" stop-color="#FFF854"/>
</linearGradient>
<linearGradient id="paint3_linear_2507_1707" x1="72.5448" y1="20" x2="101.697" y2="20" gradientUnits="userSpaceOnUse">
<stop stop-color="#4DC760"/>
<stop offset="1" stop-color="#FFF854"/>
</linearGradient>
<linearGradient id="paint4_linear_2507_1707" x1="72.5448" y1="20" x2="101.697" y2="20" gradientUnits="userSpaceOnUse">
<stop stop-color="#4DC760"/>
<stop offset="1" stop-color="#FFF854"/>
</linearGradient>
<linearGradient id="paint5_linear_2507_1707" x1="72.5448" y1="20" x2="101.697" y2="20" gradientUnits="userSpaceOnUse">
<stop stop-color="#4DC760"/>
<stop offset="1" stop-color="#FFF854"/>
</linearGradient>
<linearGradient id="paint6_linear_2507_1707" x1="72.5448" y1="20" x2="101.697" y2="20" gradientUnits="userSpaceOnUse">
<stop stop-color="#4DC760"/>
<stop offset="1" stop-color="#FFF854"/>
</linearGradient>
<linearGradient id="paint7_linear_2507_1707" x1="72.5448" y1="20" x2="101.697" y2="20" gradientUnits="userSpaceOnUse">
<stop stop-color="#4DC760"/>
<stop offset="1" stop-color="#FFF854"/>
</linearGradient>
<linearGradient id="paint8_linear_2507_1707" x1="72.5448" y1="20" x2="101.697" y2="20" gradientUnits="userSpaceOnUse">
<stop stop-color="#4DC760"/>
<stop offset="1" stop-color="#FFF854"/>
</linearGradient>
<linearGradient id="paint9_linear_2507_1707" x1="72.5448" y1="20" x2="101.697" y2="20" gradientUnits="userSpaceOnUse">
<stop stop-color="#4DC760"/>
<stop offset="1" stop-color="#FFF854"/>
</linearGradient>
</defs>
</svg>
