<svg width="123" height="16" viewBox="0 0 123 16" fill="none" xmlns="http://www.w3.org/2000/svg">
<path d="M3.82031 0.078125C5.29427 0.078125 6.36979 0.380208 7.04688 0.984375C7.72396 1.58854 8.0625 2.4349 8.0625 3.52344C8.0625 4.01823 7.98438 4.48958 7.82812 4.9375C7.67708 5.38021 7.42708 5.77344 7.07812 6.11719C6.72917 6.45573 6.26823 6.72396 5.69531 6.92188C5.1276 7.11979 4.42708 7.21875 3.59375 7.21875H2.375V11.5H0.5V0.078125H3.82031ZM3.69531 1.63281H2.375V5.65625H3.39844C3.98698 5.65625 4.48698 5.58854 4.89844 5.45312C5.3099 5.3125 5.6224 5.09115 5.83594 4.78906C6.04948 4.48698 6.15625 4.08854 6.15625 3.59375C6.15625 2.93229 5.95573 2.4401 5.55469 2.11719C5.15885 1.79427 4.53906 1.63281 3.69531 1.63281ZM19.7772 5.67969C19.7772 6.96615 19.5376 8.04167 19.0584 8.90625C18.5793 9.76562 17.884 10.4141 16.9725 10.8516C16.061 11.2839 14.9621 11.5 13.6756 11.5H10.5037V0.078125H14.0194C15.2017 0.078125 16.2225 0.291667 17.0819 0.71875C17.9412 1.14062 18.6053 1.76823 19.0741 2.60156C19.5428 3.42969 19.7772 4.45573 19.7772 5.67969ZM17.8241 5.73438C17.8241 4.79688 17.6756 4.02604 17.3787 3.42188C17.0871 2.81771 16.6548 2.36979 16.0819 2.07812C15.5142 1.78125 14.8136 1.63281 13.9803 1.63281H12.3787V9.92969H13.7069C15.0871 9.92969 16.1183 9.57812 16.8006 8.875C17.4829 8.17188 17.8241 7.125 17.8241 5.73438ZM24.2575 11.5H22.3981V0.078125H28.8512V1.65625H24.2575V5.21875H28.5544V6.78906H24.2575V11.5ZM42.2806 2.85156V10.0781H43.5306V14.5469H41.8353V11.5H35.8666V14.5469H34.1712V10.0781H34.8744C35.3119 9.44271 35.6765 8.73438 35.9681 7.95312C36.265 7.17188 36.4942 6.34896 36.6556 5.48438C36.8223 4.61458 36.9265 3.73698 36.9681 2.85156H42.2806ZM40.4603 4.25781H38.5462C38.4837 4.96094 38.377 5.66146 38.2259 6.35938C38.0749 7.05208 37.8796 7.71615 37.64 8.35156C37.4056 8.98177 37.1244 9.55729 36.7962 10.0781H40.4603V4.25781ZM52.9562 7.15625C52.9562 7.875 52.8625 8.51302 52.675 9.07031C52.4875 9.6276 52.2141 10.099 51.8547 10.4844C51.4953 10.8646 51.063 11.1562 50.5578 11.3594C50.0526 11.5573 49.4823 11.6562 48.8469 11.6562C48.2531 11.6562 47.7089 11.5573 47.2141 11.3594C46.7193 11.1562 46.2896 10.8646 45.925 10.4844C45.5656 10.099 45.287 9.6276 45.0891 9.07031C44.8911 8.51302 44.7922 7.875 44.7922 7.15625C44.7922 6.20312 44.9562 5.39583 45.2844 4.73438C45.6177 4.06771 46.0917 3.5599 46.7062 3.21094C47.3208 2.86198 48.0526 2.6875 48.9016 2.6875C49.6984 2.6875 50.4016 2.86198 51.0109 3.21094C51.6203 3.5599 52.0969 4.06771 52.4406 4.73438C52.7844 5.40104 52.9562 6.20833 52.9562 7.15625ZM46.6828 7.15625C46.6828 7.78646 46.7583 8.32552 46.9094 8.77344C47.0656 9.22135 47.3052 9.5651 47.6281 9.80469C47.951 10.0391 48.3677 10.1562 48.8781 10.1562C49.3885 10.1562 49.8052 10.0391 50.1281 9.80469C50.451 9.5651 50.688 9.22135 50.8391 8.77344C50.9901 8.32552 51.0656 7.78646 51.0656 7.15625C51.0656 6.52604 50.9901 5.99219 50.8391 5.55469C50.688 5.11198 50.451 4.77604 50.1281 4.54688C49.8052 4.3125 49.3859 4.19531 48.8703 4.19531C48.1099 4.19531 47.5552 4.45052 47.2062 4.96094C46.8573 5.47135 46.6828 6.20312 46.6828 7.15625ZM60.585 2.85156H62.6084L59.0303 7.00781L62.9131 11.5H60.7959L57.0694 7.10938V11.5H55.2256V2.85156H57.0694V7.04688L60.585 2.85156ZM63.1747 2.85156H65.1747L66.9481 7.78906C67.0263 8.01302 67.0966 8.23438 67.1591 8.45312C67.2268 8.66667 67.2841 8.8776 67.3309 9.08594C67.383 9.29427 67.4247 9.5026 67.4559 9.71094H67.5028C67.5549 9.4401 67.6278 9.13802 67.7216 8.80469C67.8205 8.46615 67.9299 8.1276 68.0497 7.78906L69.7528 2.85156H71.7294L68.0184 12.6875C67.8049 13.25 67.5419 13.7292 67.2294 14.125C66.9221 14.526 66.5575 14.8281 66.1356 15.0312C65.7138 15.2396 65.232 15.3438 64.6903 15.3438C64.4299 15.3438 64.2033 15.3281 64.0106 15.2969C63.8179 15.2708 63.6539 15.2422 63.5184 15.2109V13.7422C63.6278 13.7682 63.7658 13.7917 63.9325 13.8125C64.0992 13.8333 64.271 13.8438 64.4481 13.8438C64.7763 13.8438 65.0601 13.7786 65.2997 13.6484C65.5393 13.5182 65.7424 13.3333 65.9091 13.0938C66.0757 12.8594 66.2138 12.5911 66.3231 12.2891L66.6278 11.4766L63.1747 2.85156ZM83.2253 2.85156V11.5H81.5222V6.5625C81.5222 6.23958 81.53 5.91667 81.5456 5.59375C81.5612 5.27083 81.5821 4.96354 81.6081 4.67188H81.5612L78.9284 11.5H77.4831L74.8737 4.66406H74.8191C74.8451 4.96094 74.8633 5.26823 74.8737 5.58594C74.8894 5.90365 74.8972 6.2474 74.8972 6.61719V11.5H73.1941V2.85156H75.7566L78.2253 9.3125L80.7331 2.85156H83.2253ZM89.4322 2.6875C90.203 2.6875 90.8645 2.84635 91.4166 3.16406C91.9686 3.48177 92.3931 3.93229 92.69 4.51562C92.9869 5.09896 93.1353 5.79688 93.1353 6.60938V7.59375H87.3619C87.3827 8.43229 87.6067 9.07812 88.0338 9.53125C88.466 9.98438 89.0702 10.2109 89.8463 10.2109C90.3983 10.2109 90.8931 10.1589 91.3306 10.0547C91.7733 9.94531 92.2291 9.78646 92.6978 9.57812V11.0703C92.2655 11.2734 91.8254 11.4219 91.3775 11.5156C90.9296 11.6094 90.3931 11.6562 89.7681 11.6562C88.9192 11.6562 88.1718 11.4922 87.5259 11.1641C86.8853 10.8307 86.3827 10.3359 86.0181 9.67969C85.6588 9.02344 85.4791 8.20833 85.4791 7.23438C85.4791 6.26562 85.6431 5.44271 85.9713 4.76562C86.2994 4.08854 86.7603 3.57292 87.3541 3.21875C87.9478 2.86458 88.6405 2.6875 89.4322 2.6875ZM89.4322 4.07031C88.8541 4.07031 88.3853 4.25781 88.0259 4.63281C87.6718 5.00781 87.4634 5.55729 87.4009 6.28125H91.3384C91.3332 5.84896 91.2603 5.46615 91.1197 5.13281C90.9843 4.79948 90.7759 4.53906 90.4947 4.35156C90.2186 4.16406 89.8645 4.07031 89.4322 4.07031ZM97.2094 2.85156V6.32812H101.256V2.85156H103.1V11.5H101.256V7.76562H97.2094V11.5H95.3656V2.85156H97.2094ZM112.416 4.29688H109.573V11.5H107.744V4.29688H104.916V2.85156H112.416V4.29688ZM116.014 2.85156V7.26562C116.014 7.40625 116.009 7.58594 115.998 7.80469C115.993 8.01823 115.982 8.24219 115.967 8.47656C115.951 8.70573 115.936 8.91667 115.92 9.10938C115.904 9.30208 115.891 9.44531 115.881 9.53906L120.232 2.85156H122.467V11.5H120.709V7.13281C120.709 6.90365 120.714 6.63802 120.725 6.33594C120.74 6.03385 120.756 5.74219 120.772 5.46094C120.792 5.17969 120.805 4.96615 120.811 4.82031L116.475 11.5H114.248V2.85156H116.014Z" fill="#FEFFFE"/>
</svg>
