<svg width="16" height="21" viewBox="0 0 16 21" fill="none" xmlns="http://www.w3.org/2000/svg">
<path d="M8 10C7.2896 10 6.60829 9.73661 6.10596 9.26777C5.60363 8.79893 5.32143 8.16304 5.32143 7.5C5.32143 6.83696 5.60363 6.20107 6.10596 5.73223C6.60829 5.26339 7.2896 5 8 5C8.7104 5 9.39171 5.26339 9.89404 5.73223C10.3964 6.20107 10.6786 6.83696 10.6786 7.5C10.6786 7.8283 10.6093 8.15339 10.4747 8.45671C10.3401 8.76002 10.1428 9.03562 9.89404 9.26777C9.64531 9.49991 9.35002 9.68406 9.02505 9.8097C8.70007 9.93534 8.35175 10 8 10ZM8 0.5C6.01088 0.5 4.10322 1.2375 2.6967 2.55025C1.29018 3.86301 0.5 5.64348 0.5 7.5C0.5 12.75 8 20.5 8 20.5C8 20.5 15.5 12.75 15.5 7.5C15.5 5.64348 14.7098 3.86301 13.3033 2.55025C11.8968 1.2375 9.98912 0.5 8 0.5Z" fill="#FEFFFE"/>
</svg>
