<svg width="12" height="21" viewBox="0 0 12 21" fill="none" xmlns="http://www.w3.org/2000/svg">
<path d="M6 12.6429C6.51562 12.6429 7.01562 12.5871 7.5 12.4754V19.7857C7.5 19.9792 7.42578 20.1466 7.27734 20.2879C7.12891 20.4293 6.95312 20.5 6.75 20.5H5.25C5.04688 20.5 4.87109 20.4293 4.72266 20.2879C4.57422 20.1466 4.5 19.9792 4.5 19.7857V12.4754C4.98437 12.5871 5.48438 12.6429 6 12.6429ZM6 0.5C7.65625 0.5 9.07031 1.05804 10.2422 2.17411C11.4141 3.29018 12 4.6369 12 6.21429C12 7.79167 11.4141 9.13839 10.2422 10.2545C9.07031 11.3705 7.65625 11.9286 6 11.9286C4.34375 11.9286 2.92969 11.3705 1.75781 10.2545C0.585938 9.13839 0 7.79167 0 6.21429C0 4.6369 0.585938 3.29018 1.75781 2.17411C2.92969 1.05804 4.34375 0.5 6 0.5ZM6 3C6.10938 3 6.19922 2.96652 6.26953 2.89955C6.33984 2.83259 6.375 2.74702 6.375 2.64286C6.375 2.53869 6.33984 2.45312 6.26953 2.38616C6.19922 2.3192 6.10938 2.28571 6 2.28571C4.85938 2.28571 3.88672 2.6689 3.08203 3.43527C2.27734 4.20164 1.875 5.12798 1.875 6.21429C1.875 6.31845 1.91016 6.40402 1.98047 6.47098C2.05078 6.53795 2.14062 6.57143 2.25 6.57143C2.35937 6.57143 2.44922 6.53795 2.51953 6.47098C2.58984 6.40402 2.625 6.31845 2.625 6.21429C2.625 5.32887 2.95508 4.5718 3.61523 3.94308C4.27539 3.31436 5.07031 3 6 3Z" fill="#FEFFFE"/>
</svg>
