<svg width="24" height="28" viewBox="0 0 24 28" fill="none" xmlns="http://www.w3.org/2000/svg">
<g clip-path="url(#clip0_469_2628)">
<path d="M12 4C6.48 4 2 8.48 2 14C2 19.52 6.48 24 12 24C17.52 24 22 19.52 22 14C22 8.48 17.52 4 12 4ZM12 22C7.58 22 4 18.42 4 14C4 9.58 7.58 6 12 6C16.42 6 20 9.58 20 14C20 18.42 16.42 22 12 22Z" fill="#4DC760"/>
<path d="M12 19C14.7614 19 17 16.7614 17 14C17 11.2386 14.7614 9 12 9C9.23858 9 7 11.2386 7 14C7 16.7614 9.23858 19 12 19Z" fill="#4DC760"/>
</g>
<defs>
<clipPath id="clip0_469_2628">
<rect width="24" height="28" rx="12" fill="white"/>
</clipPath>
</defs>
</svg>
