<svg aria-hidden="true" style="position: absolute; width: 0; height: 0; overflow: hidden;" version="1.1" xmlns="http://www.w3.org/2000/svg" xmlns:xlink="http://www.w3.org/1999/xlink">
<defs>
<symbol id="icon-select_open" viewBox="0 0 32 32">
<path d="M10.289 20c-0.999 0-1.692-0.355-2.081-1.066-0.39-0.71-0.232-1.341 0.472-1.89l5.768-4.522c0.222-0.174 0.462-0.305 0.721-0.392s0.536-0.13 0.832-0.13c0.296 0 0.573 0.043 0.832 0.13s0.499 0.218 0.72 0.392l5.769 4.522c0.702 0.55 0.859 1.18 0.47 1.892-0.389 0.71-1.082 1.065-2.079 1.064h-11.425z"></path>
</symbol>
<symbol id="icon-select_close" viewBox="0 0 32 32">
<path d="M10.289 12c-0.999 0-1.692 0.355-2.081 1.066-0.39 0.71-0.232 1.341 0.472 1.89l5.768 4.522c0.222 0.174 0.462 0.305 0.721 0.392 0.259 0.086 0.536 0.13 0.832 0.13s0.573-0.044 0.832-0.13c0.259-0.087 0.499-0.218 0.72-0.392l5.769-4.522c0.702-0.55 0.859-1.18 0.47-1.892-0.389-0.71-1.082-1.065-2.079-1.064h-11.425z"></path>
</symbol>
<symbol id="icon-telegram" viewBox="0 0 32 32">
<path d="M25.894 6.213c0.222-0.096 0.48-0.152 0.752-0.152 1.071 0 1.939 0.868 1.939 1.939 0 0.111-0.009 0.22-0.027 0.326l0.002-0.011-2.932 17.786c-0.284 1.716-2.167 2.7-3.74 1.845-1.317-0.715-3.272-1.816-5.030-2.966-0.88-0.575-3.572-2.417-3.242-3.729 0.285-1.121 4.81-5.333 7.396-7.838 1.015-0.983 0.553-1.552-0.647-0.646-2.977 2.247-7.755 5.664-9.334 6.626-1.394 0.849-2.121 0.993-2.99 0.849-1.585-0.264-3.055-0.673-4.255-1.17-1.621-0.672-1.542-2.901-0.001-3.55l22.109-9.309z"></path>
</symbol>
<symbol id="icon-tel" viewBox="0 0 32 32">
<path d="M23.541 31.995c-2.309-0.085-8.848-0.989-15.699-7.835-6.848-6.848-7.75-13.387-7.837-15.696-0.128-3.518 2.566-6.936 5.68-8.272 0.275-0.122 0.596-0.193 0.933-0.193 0.52 0 1 0.168 1.39 0.453l-0.007-0.005c2.565 1.869 4.334 4.694 5.854 6.917 0.264 0.381 0.422 0.853 0.422 1.363 0 0.726-0.321 1.377-0.829 1.819l-0.003 0.002-3.126 2.32c-0.195 0.141-0.32 0.368-0.32 0.624 0 0.133 0.034 0.258 0.093 0.367l-0.002-0.004c0.709 1.288 1.968 3.203 3.411 4.646 1.445 1.442 3.451 2.784 4.827 3.573 0.109 0.062 0.24 0.099 0.379 0.099 0.273 0 0.513-0.142 0.651-0.355l0.002-0.003 2.035-3.098c0.444-0.586 1.141-0.961 1.925-0.961 0.513 0 0.988 0.16 1.379 0.433l-0.008-0.005c2.256 1.562 4.886 3.299 6.813 5.766 0.31 0.395 0.497 0.899 0.497 1.447 0 0.337-0.071 0.658-0.198 0.948l0.006-0.015c-1.344 3.13-4.736 5.794-8.267 5.664z"></path>
</symbol>
<symbol id="icon-search" viewBox="0 0 32 32">
<path d="M30.822 29.572l-7.58-7.582c1.937-2.218 3.118-5.14 3.118-8.338 0-7.018-5.689-12.708-12.708-12.708s-12.708 5.689-12.708 12.708c0 7.018 5.689 12.708 12.708 12.708 3.198 0 6.12-1.181 8.353-3.131l-0.015 0.013 7.58 7.58c0.16 0.16 0.381 0.259 0.626 0.259 0.489 0 0.885-0.396 0.885-0.885 0-0.244-0.099-0.466-0.259-0.626v0zM2.756 13.672c0-6.030 4.888-10.918 10.918-10.918s10.918 4.888 10.918 10.918c0 6.030-4.888 10.918-10.918 10.918v0c-6.027-0.008-10.91-4.891-10.918-10.917v-0.001z"></path>
</symbol>
<symbol id="icon-saved" viewBox="0 0 32 32">
<path d="M25.6 29.878l-8.042-5.034-1.558-1.023-1.697 1.070c0.504-0.312 1.158-0.73 1.697-1.070l1.762 1.155 7.838 4.902zM28 2.14v-2.14s-1.73 0.019-2.366 0.019h-21.634v29.859c0 0.388 0.121 0.768 0.349 1.099s0.554 0.602 0.943 0.781c0.325 0.151 0.705 0.24 1.105 0.24 0.056 0 0.111-0.002 0.166-0.005l-0.008 0c0.454-0.025 0.871-0.163 1.23-0.385l-0.011 0.006 7.882-4.875c0.097-0.060 0.215-0.096 0.342-0.096 0.001 0 0.001 0 0.002 0h-0c0 0 0.001 0 0.002 0 0.126 0 0.244 0.036 0.345 0.098l-0.003-0.002 7.882 4.878c0.36 0.222 0.782 0.353 1.221 0.378 0.047 0.003 0.101 0.005 0.156 0.005 0.402 0 0.783-0.089 1.125-0.248l-0.016 0.007c0.386-0.177 0.705-0.443 0.938-0.774l0.005-0.007c0.227-0.333 0.347-0.714 0.346-1.102v-27.736z"></path>
</symbol>
<symbol id="icon-right-arrow" viewBox="0 0 32 32">
<path d="M17.79 15.771l-5.157 4.816c-0.179 0.168-0.29 0.405-0.29 0.668 0 0.242 0.094 0.461 0.246 0.625l-0.001-0.001c0.344 0.369 0.924 0.389 1.292 0.044l5.212-4.869c0.347-0.32 0.564-0.777 0.564-1.285s-0.216-0.964-0.562-1.283l-0.001-0.001-5.212-4.87c-0.163-0.152-0.382-0.245-0.623-0.245-0.001 0-0.001 0-0.002 0h0c-0.245 0-0.488 0.097-0.667 0.29-0.152 0.163-0.246 0.383-0.246 0.624 0 0.263 0.111 0.501 0.289 0.668l0.001 0 5.157 4.817z"></path>
</symbol>
<symbol id="icon-logo" viewBox="0 0 32 32">
<path d="M1.714 15.924c0.248 0.132 0.395 0.371 0.395 0.67 0 0.447-0.403 0.806-0.9 0.806h-1.209v-2.792h1.177c0.493 0 0.859 0.307 0.859 0.718-0.002 0.248-0.128 0.467-0.319 0.596l-0.003 0.002zM1.437 15.418c0-0.176-0.126-0.295-0.318-0.295h-0.517v0.594h0.517c0.191 0 0.318-0.124 0.318-0.299zM1.152 16.846c0.204 0 0.338-0.132 0.338-0.315 0-0.179-0.134-0.311-0.338-0.311h-0.55v0.626h0.55z"></path>
<path d="M4.438 17.396l-0.199-0.527h-1.132l-0.196 0.527h-0.655l1.12-2.792h0.582l1.152 2.792h-0.672zM3.673 15.342l-0.375 1.001h0.749l-0.375-1.001z"></path>
<path d="M6.18 16.838h1.226v0.558h-2.154v-0.088l1.189-2.142h-1.124v-0.562h2.040v0.112l-1.177 2.122z"></path>
<path d="M9.735 17.396l-0.199-0.527h-1.132l-0.195 0.527h-0.656l1.12-2.792h0.582l1.153 2.792h-0.672zM8.969 15.342l-0.375 1.001h0.749l-0.375-1.001z"></path>
<path d="M16.096 12.014c-0.569 0.053-1.095 0.229-1.562 0.526-0.148 0.094-0.391 0.273-0.41 0.304-0.006 0.011-0.067 0.062-0.132 0.116-0.182 0.144-0.185 0.161-0.008 0.045 0.299-0.196 0.648-0.344 1.023-0.423l0.020-0.003c0.183-0.039 0.233-0.042 0.567-0.044 0.325 0 0.387 0.005 0.55 0.038 1.157 0.232 2.066 1.067 2.398 2.203 0.078 0.27 0.070 0.275-0.070 0.030-0.236-0.406-0.301-0.509-0.397-0.637-0.749-0.989-2.015-1.504-3.252-1.322-1.167 0.172-2.166 0.913-2.64 1.96-0.171 0.366-0.276 0.792-0.29 1.242l-0 0.005c-0.043 1.18 0.524 2.258 1.538 2.923 0.266 0.176 0.727 0.371 1.151 0.49 0.013 0.003-0.062-0.037-0.167-0.092-0.223-0.116-0.292-0.158-0.454-0.278-0.453-0.338-0.805-0.821-0.987-1.353-0.346-1.018-0.108-2.132 0.634-2.975 0.081-0.092 0.155-0.172 0.164-0.176 0.022-0.014 0.021-0.012-0.12 0.197-0.242 0.359-0.432 0.818-0.515 1.247-0.057 0.293-0.070 0.718-0.030 1.016 0.158 1.219 0.984 2.269 2.128 2.706 0.402 0.153 0.748 0.225 1.156 0.239 1.2 0.042 2.335-0.531 2.99-1.509 0.268-0.397 0.456-0.869 0.53-1.379l0.002-0.018c0.042-0.293 0.029-0.751-0.032-1.092l-0.048-0.265-0.009 0.304c-0.010 0.279-0.030 0.448-0.078 0.627-0.298 1.133-1.231 1.957-2.447 2.16-0.234 0.039-0.649 0.047-0.896 0.015-0.207-0.027-0.508-0.089-0.561-0.117-0.016-0.009 0.147-0.014 0.429-0.013 0.491 0.003 0.587-0.005 0.917-0.083 0.658-0.155 1.194-0.454 1.666-0.93 0.277-0.279 0.453-0.526 0.631-0.888 0.118-0.232 0.212-0.5 0.268-0.782l0.003-0.020c0.022-0.117 0.046-0.234 0.054-0.259 0.024-0.075 0.008-0.697-0.022-0.874-0.147-0.894-0.595-1.642-1.304-2.177-0.67-0.507-1.559-0.763-2.388-0.685zM17.333 12.388c0.842 0.281 1.538 0.877 1.921 1.645 0.441 0.886 0.438 1.909-0.010 2.794-0.269 0.534-0.66 0.969-1.172 1.301-0.137 0.091-0.338 0.204-0.359 0.204-0.006 0 0.073-0.056 0.177-0.123 0.944-0.613 1.495-1.692 1.452-2.834-0.021-0.518-0.124-0.925-0.354-1.389-0.177-0.357-0.346-0.591-0.626-0.872-0.32-0.32-0.681-0.56-1.079-0.719-0.135-0.055-0.167-0.070-0.148-0.070 0.005 0 0.094 0.028 0.198 0.064zM16.41 12.396c-0.005 0.005-0.019 0.006-0.030 0.002-0.013-0.005-0.008-0.009 0.010-0.009 0.017-0.002 0.027 0.003 0.021 0.008zM16.622 12.434c1.167 0.272 2.090 1.152 2.391 2.28 0.086 0.325 0.102 0.459 0.102 0.833 0 0.364-0.014 0.474-0.096 0.796-0.226 0.879-0.875 1.657-1.704 2.043-0.198 0.092-0.25 0.104-0.096 0.020 0.596-0.318 1.031-0.766 1.325-1.361 0.226-0.462 0.328-0.905 0.327-1.436 0-0.783-0.236-1.469-0.717-2.091-0.12-0.154-0.43-0.456-0.595-0.579-0.327-0.24-0.746-0.44-1.105-0.526l-0.032-0.008 0.032-0.002c0.017 0 0.092 0.012 0.167 0.030zM15.731 13.027c0.239 0.025 0.536 0.086 0.756 0.158 0.188 0.061 0.663 0.281 0.741 0.342 0.022 0.017-0.049-0.011-0.159-0.061-0.507-0.236-0.953-0.326-1.529-0.309-0.405 0.012-0.738 0.078-1.113 0.222-0.705 0.27-1.32 0.776-1.712 1.408-0.255 0.412-0.427 0.913-0.477 1.392-0.027 0.264-0.021 0.457 0.024 0.821 0.006 0.058 0.006 0.059-0.008 0.016-0.084-0.251-0.121-0.84-0.073-1.205 0.159-1.228 0.985-2.229 2.163-2.625 0.319-0.109 0.687-0.172 1.070-0.172 0.112 0 0.222 0.005 0.331 0.016l-0.014-0.001zM16.155 13.362c0.489 0.062 0.952 0.232 1.345 0.492 0.226 0.148 0.317 0.229 0.115 0.101-0.306-0.194-0.647-0.328-1.025-0.406-0.244-0.050-0.711-0.070-0.966-0.041-0.994 0.117-1.848 0.633-2.41 1.382l-0.007 0.009c-0.575 0.769-0.775 1.763-0.531 2.653 0.040 0.15 0.011 0.101-0.046-0.075-0.576-1.781 0.537-3.658 2.413-4.068 0.325-0.072 0.771-0.089 1.111-0.047zM16.348 13.682c0.898 0.094 1.666 0.535 2.157 1.236 0.126 0.181 0.14 0.237 0.153 0.629 0.006 0.229 0.003 0.343-0.018 0.503-0.105 0.805-0.513 1.526-1.143 2.024-0.397 0.312-0.915 0.527-1.427 0.595-0.317 0.042-0.364 0.034-0.694-0.12-0.861-0.401-1.5-1.153-1.726-2.034-0.073-0.284-0.094-0.485-0.084-0.796 0.013-0.424 0.086-0.744 0.25-1.092 0.065-0.14 0.128-0.203 0.371-0.371 0.63-0.437 1.427-0.649 2.16-0.573zM13.461 15.511c-0.005 0.013-0.010 0.008-0.010-0.009-0.002-0.017 0.003-0.027 0.008-0.020 0.005 0.005 0.006 0.019 0.002 0.030zM13.437 15.864c-0.008 0.357 0.014 0.545 0.099 0.849 0.335 1.195 1.403 2.11 2.732 2.341 0.268 0.045 0.829 0.050 1.079 0.008 0.639-0.109 1.211-0.375 1.615-0.751 0.054-0.050 0.099-0.086 0.099-0.076 0 0.022-0.324 0.328-0.438 0.412-0.462 0.345-1.019 0.566-1.602 0.638-0.195 0.023-0.591 0.019-0.8-0.008-0.722-0.094-1.385-0.415-1.897-0.924-0.276-0.271-0.442-0.501-0.612-0.839-0.234-0.467-0.338-0.941-0.321-1.467 0.006-0.198 0.035-0.492 0.049-0.492 0.002 0 0 0.139-0.003 0.309zM13.254 16.096c-0.005 0.016-0.008 0.006-0.008-0.019 0-0.027 0.003-0.037 0.008-0.028 0.002 0.007 0.002 0.015 0.002 0.023s-0.001 0.016-0.003 0.024l0-0.001zM13.258 16.526c0.078 0.966 0.604 1.848 1.443 2.419 0.365 0.248 0.845 0.448 1.286 0.534 0.3 0.059 0.513 0.076 0.81 0.067 0.658-0.023 1.229-0.204 1.777-0.566 0.171-0.114 0.174-0.114 0.088-0.038-0.115 0.103-0.33 0.253-0.513 0.356-0.371 0.213-0.807 0.363-1.271 0.421l-0.017 0.002c-0.195 0.025-0.591 0.020-0.802-0.006-1.245-0.161-2.258-1.012-2.65-2.151l-0.007-0.023c-0.132-0.395-0.177-0.68-0.172-1.103 0.002-0.147 0.005-0.234 0.008-0.195 0.002 0.039 0.011 0.167 0.021 0.284z"></path>
<path d="M22.645 17.452c-0.656 0-1.108-0.359-1.108-0.957h0.623c0 0.267 0.228 0.399 0.481 0.399 0.232 0 0.46-0.12 0.46-0.327 0-0.219-0.261-0.279-0.57-0.347-0.432-0.104-0.953-0.227-0.953-0.83 0-0.534 0.403-0.838 1.034-0.838 0.656 0 1.026 0.343 1.026 0.901h-0.607c0-0.243-0.204-0.355-0.436-0.355-0.2 0-0.399 0.084-0.399 0.267 0 0.195 0.244 0.255 0.55 0.327 0.432 0.108 0.977 0.239 0.977 0.865 0 0.602-0.489 0.893-1.079 0.893z"></path>
<path d="M26.596 17.396h-0.753l-1.006-1.36v1.36h-0.615v-2.792h0.615v1.292l0.937-1.292h0.717l-0.969 1.34 1.075 1.452z"></path>
<path d="M26.894 17.396v-2.792h0.615v2.792h-0.615z"></path>
<path d="M28.777 16.838h1.095v0.558h-1.71v-2.792h0.615v2.234z"></path>
<path d="M30.905 16.838h1.095v0.558h-1.71v-2.792h0.615v2.234z"></path>
</symbol>
<symbol id="icon-location" viewBox="0 0 32 32">
<path d="M16 15.333c-0.947 0-1.856-0.351-2.525-0.976-0.639-0.587-1.040-1.425-1.047-2.356v-0.001c0-0.884 0.377-1.732 1.047-2.357 0.657-0.605 1.538-0.976 2.506-0.976 0.007 0 0.014 0 0.020 0h-0.001c0.947 0 1.856 0.351 2.525 0.976 0.669 0.627 1.047 1.473 1.047 2.357 0 0.437-0.093 0.871-0.272 1.276-0.192 0.422-0.453 0.781-0.773 1.078l-0.002 0.002c-0.325 0.304-0.71 0.549-1.134 0.716l-0.024 0.008c-0.433 0.167-0.897 0.253-1.367 0.253zM16 2.667c-2.653 0-5.196 0.983-7.071 2.733-1.876 1.751-2.929 4.124-2.929 6.6 0 7 10 17.333 10 17.333s10-10.333 10-17.333c0-2.476-1.053-4.849-2.929-6.6-1.875-1.751-4.417-2.733-7.071-2.733z"></path>
</symbol>
<symbol id="icon-lnkedIn" viewBox="0 0 32 32">
<path d="M7.271 10.397v21.603h-6.875v-21.603h6.875zM7.708 3.728c0.013 1.060-0.336 1.947-1.052 2.659-0.715 0.712-1.656 1.068-2.823 1.068h-0.041c-1.139 0-2.056-0.356-2.751-1.067-0.693-0.715-1.041-1.601-1.041-2.661 0-1.075 0.357-1.964 1.073-2.669 0.713-0.705 1.649-1.057 2.801-1.057 1.153 0 2.077 0.352 2.771 1.057 0.695 0.705 1.049 1.595 1.063 2.671zM32 19.619v12.381h-6.853v-11.553c0-1.525-0.283-2.72-0.844-3.587-0.563-0.864-1.441-1.296-2.636-1.296-0.875 0-1.608 0.251-2.197 0.752-0.58 0.494-1.032 1.12-1.313 1.833l-0.011 0.031c-0.152 0.436-0.228 1.024-0.228 1.765v12.055h-6.856c0.027-5.799 0.041-10.5 0.041-14.104s-0.007-5.755-0.020-6.452l-0.021-1.047h6.853v3.14h-0.040c0.274-0.463 0.556-0.862 0.866-1.237l-0.013 0.016c0.292-0.349 0.684-0.727 1.177-1.133s1.097-0.723 1.813-0.948c0.686-0.215 1.475-0.339 2.293-0.339 0.032 0 0.064 0 0.096 0.001l-0.005-0c2.375 0 4.285 0.825 5.729 2.475 1.445 1.649 2.168 4.065 2.168 7.248z"></path>
</symbol>
<symbol id="icon-left-arrow" viewBox="0 0 32 32">
<path d="M14.21 15.771l5.158-4.817c0.368-0.345 0.389-0.923 0.044-1.293-0.167-0.179-0.404-0.29-0.668-0.29-0.242 0-0.461 0.094-0.625 0.247l0-0-5.212 4.869c-0.347 0.32-0.564 0.777-0.564 1.285s0.216 0.964 0.562 1.283l0.001 0.001 5.212 4.87c0.176 0.165 0.4 0.246 0.624 0.246 0.245 0 0.488-0.097 0.667-0.29 0.152-0.163 0.246-0.383 0.246-0.624 0-0.263-0.111-0.501-0.289-0.668l-0-0-5.157-4.817z"></path>
</symbol>
<symbol id="icon-instagram" viewBox="0 0 32 32">
<path d="M16.21 10.877c-2.827 0.006-5.117 2.296-5.123 5.122v0.001c0.006 2.827 2.296 5.117 5.122 5.123h0.001c2.826-0.007 5.115-2.296 5.121-5.122v-0.001c-0.006-2.826-2.295-5.116-5.121-5.123h-0.001zM31.571 16c0-2.121 0.019-4.224-0.1-6.34-0.119-2.46-0.68-4.643-2.478-6.441-1.802-1.802-3.981-2.359-6.44-2.477-2.121-0.12-4.224-0.102-6.341-0.102-2.12 0-4.223-0.018-6.34 0.101-2.459 0.119-4.641 0.68-6.44 2.478-1.802 1.802-2.359 3.981-2.478 6.441-0.119 2.121-0.1 4.223-0.1 6.34s-0.019 4.224 0.1 6.34c0.119 2.46 0.68 4.643 2.478 6.441 1.802 1.802 3.981 2.359 6.44 2.478 2.121 0.119 4.224 0.1 6.34 0.1 2.122 0 4.224 0.019 6.341-0.1 2.459-0.119 4.641-0.68 6.44-2.478 1.802-1.802 2.359-3.981 2.478-6.441 0.123-2.117 0.1-4.219 0.1-6.34zM16.21 23.881c-0.004 0-0.008 0-0.013 0-4.346 0-7.869-3.523-7.869-7.869 0-0.004 0-0.008 0-0.012v0.001c0-0.003 0-0.007 0-0.012 0-4.346 3.523-7.869 7.869-7.869 0.005 0 0.009 0 0.014 0h-0.001c0.003 0 0.007 0 0.010 0 4.346 0 7.869 3.523 7.869 7.869 0 0.004 0 0.008 0 0.012v-0.001c0 0.003 0 0.007 0 0.012 0 4.346-3.523 7.869-7.869 7.869-0.005 0-0.009 0-0.014 0h0.001zM24.413 9.638c-0.001 0-0.002 0-0.003 0-1.015 0-1.838-0.823-1.838-1.838 0-0.001 0-0.002 0-0.003v0c0-1.019 0.822-1.841 1.841-1.841 0.002 0 0.004 0 0.007 0 1.015 0 1.838 0.823 1.838 1.838 0 0.51-0.208 0.971-0.543 1.304l-0 0c-0.332 0.332-0.791 0.538-1.298 0.538-0.001 0-0.002 0-0.003 0h0z"></path>
</symbol>
<symbol id="icon-facebook" viewBox="0 0 32 32">
<path d="M16 0c-8.837 0-16 7.163-16 16s7.163 16 16 16 16-7.163 16-16-7.163-16-16-16zM19.789 11.057h-2.403c-0.285 0-0.601 0.373-0.601 0.873v1.736h3.008l-0.455 2.476h-2.553v7.436h-2.84v-7.436h-2.573v-2.476h2.573v-1.456c0-2.091 1.451-3.789 3.44-3.789h2.405v2.636z"></path>
</symbol>
<symbol id="icon-email" viewBox="0 0 32 32">
<path d="M28.8 4h-25.6c-1.76 0-3.2 1.35-3.2 3v18c0 1.65 1.44 3 3.2 3h25.6c1.76 0 3.2-1.35 3.2-3v-18c0-1.65-1.44-3-3.2-3zM28.16 10.374l-10.464 6.138c-1.040 0.614-2.352 0.614-3.392 0l-10.464-6.138c-0.163-0.086-0.3-0.199-0.411-0.334l-0.002-0.002c-0.177-0.207-0.285-0.479-0.285-0.776 0-0.253 0.079-0.488 0.213-0.681l-0.003 0.004c0.101-0.148 0.227-0.27 0.373-0.365l0.005-0.003c0.218-0.144 0.485-0.231 0.772-0.231 0.098 0 0.193 0.010 0.285 0.029l-0.009-0.002c0.19 0.036 0.359 0.106 0.508 0.203l-0.005-0.003 10.72 6.286 10.72-6.286c0.217-0.143 0.483-0.228 0.768-0.228 0.099 0 0.196 0.010 0.289 0.030l-0.009-0.002c0.19 0.037 0.359 0.107 0.508 0.205l-0.005-0.003c0.151 0.099 0.277 0.222 0.375 0.367l0.003 0.005c0.128 0.19 0.204 0.425 0.204 0.677 0 0.112-0.015 0.22-0.043 0.323l0.002-0.009c-0.050 0.177-0.132 0.331-0.24 0.463l0.002-0.002c-0.113 0.137-0.25 0.25-0.406 0.332l-0.007 0.004z"></path>
</symbol>
<symbol id="icon-dropdown" viewBox="0 0 32 32">
<path d="M16 22.667c-0.804 0-1.584-0.375-2.14-1.027l-8.116-9.501c-0.573-0.673-0.543-1.728 0.072-2.357 0.262-0.276 0.632-0.447 1.041-0.447 0.447 0 0.847 0.204 1.11 0.525l0.002 0.002 8.031 9.4 8.031-9.4c0.265-0.324 0.664-0.529 1.112-0.529 0.41 0 0.78 0.172 1.041 0.448l0.001 0.001c0.613 0.629 0.647 1.684 0.072 2.357l-8.116 9.501c-0.557 0.652-1.337 1.027-2.14 1.027z"></path>
</symbol>
<symbol id="icon-dn-header" viewBox="0 0 32 32">
<path d="M10.624 11.294c-0.939 0-1.592 0.418-1.958 1.254-0.367 0.838-0.218 1.577 0.444 2.225l5.429 5.32c0.365 0.379 0.876 0.614 1.443 0.614 0.006 0 0.013-0 0.019-0h-0.001c0.006 0 0.013 0 0.020 0 0.566 0 1.078-0.235 1.442-0.613l0.001-0.001 5.429-5.32c0.661-0.648 0.809-1.391 0.442-2.227-0.365-0.836-1.016-1.254-1.958-1.252h-10.75z"></path>
</symbol>
<symbol id="icon-desktop" viewBox="0 0 32 32">
<path d="M26.667 2.667h-21.333c-1.473 0-2.667 1.194-2.667 2.667v0 14.667c0 1.473 1.194 2.667 2.667 2.667v0h9.333v4h-4c-0.736 0-1.333 0.597-1.333 1.333s0.597 1.333 1.333 1.333v0h10.667c0.736 0 1.333-0.597 1.333-1.333s-0.597-1.333-1.333-1.333v0h-4v-4h9.333c1.473 0 2.667-1.194 2.667-2.667v0-14.667c0-1.473-1.194-2.667-2.667-2.667v0zM26.667 5.333v9.333h-21.333v-9.333h21.333zM5.333 20v-2.667h21.333v2.667h-21.333z"></path>
</symbol>
<symbol id="icon-check" viewBox="0 0 32 32">
<path d="M27.333 8.547l-16 16-7.333-7.333 1.88-1.88 5.453 5.44 14.12-14.107 1.88 1.88z"></path>
</symbol>
<symbol id="icon-discord" viewBox="0 0 47 32">
<path d="M30.268 0c1.719 0 3.535 0.52 5.199 1.093l1.218 0.432c2.911 1.055 4.547 3.269 5.816 5.701 2.059 3.947 3.489 9.208 3.983 13.209 0.236 1.898 0.293 3.809-0.129 5.094-0.455 1.373-2.003 2.344-3.507 3.107l-0.744 0.366-0.772 0.372c-0.397 0.192-0.806 0.382-1.213 0.567l-1.206 0.54-1.657 0.713-1.333 0.567c-0.272 0.127-0.571 0.205-0.88 0.231s-0.619-0.003-0.914-0.084c-0.295-0.081-0.568-0.212-0.804-0.385s-0.428-0.387-0.566-0.626c-0.138-0.239-0.22-0.5-0.239-0.767s0.023-0.535 0.125-0.787c0.102-0.253 0.262-0.485 0.471-0.683s0.46-0.358 0.741-0.47l1.825-0.779-1.34-1.217c-3.212 1.139-6.994 1.785-11.012 1.785s-7.801-0.643-11.012-1.785l-1.34 1.215 1.832 0.779c0.272 0.117 0.514 0.28 0.713 0.478s0.351 0.429 0.447 0.677c0.096 0.249 0.135 0.512 0.113 0.774s-0.102 0.518-0.238 0.752c-0.136 0.235-0.323 0.444-0.553 0.616s-0.495 0.303-0.783 0.387c-0.582 0.168-1.216 0.129-1.765-0.108l-1.257-0.539c-0.929-0.4-1.86-0.795-2.78-1.213l-2.144-1.009-0.742-0.366c-1.504-0.763-3.055-1.734-3.507-3.107-0.425-1.285-0.365-3.193-0.132-5.096 0.494-3.999 1.925-9.26 3.983-13.207 1.269-2.432 2.904-4.646 5.816-5.701 1.932-0.699 4.272-1.525 6.416-1.525 1.393 0 2.489 1.109 2.288 2.292 1.538-0.197 3.090-0.295 4.644-0.294 1.597 0 3.156 0.1 4.653 0.296-0.045-0.284-0.019-0.573 0.075-0.847s0.255-0.529 0.471-0.746c0.216-0.217 0.483-0.392 0.783-0.512s0.624-0.185 0.955-0.189zM15.82 12.989c-1.072 0-2.101 0.368-2.859 1.024s-1.184 1.545-1.184 2.473 0.426 1.817 1.184 2.473c0.758 0.656 1.787 1.024 2.859 1.024s2.101-0.369 2.859-1.024c0.758-0.656 1.184-1.545 1.184-2.473s-0.426-1.817-1.184-2.473c-0.758-0.656-1.787-1.024-2.859-1.024zM30.839 12.989c-1.072 0-2.101 0.368-2.859 1.024s-1.184 1.545-1.184 2.473 0.426 1.817 1.184 2.473c0.758 0.656 1.787 1.024 2.859 1.024s2.101-0.369 2.859-1.024c0.758-0.656 1.184-1.545 1.184-2.473s-0.426-1.817-1.184-2.473c-0.758-0.656-1.787-1.024-2.859-1.024z"></path>
</symbol>
<symbol id="icon-flag" viewBox="0 0 30 40">
<path fillRule="evenodd" clipRule="evenodd" d="M27 37.348L18.9043 32.286L16.9482 31.0552L15 29.7784L3 37.348L12.8787 31.1165C13.5091 30.7264 14.3262 30.2034 15 29.7784C15.81 30.3092 16.5555 30.7979 17.2026 31.222L27 37.348ZM30 2.67477C30 1.97172 30 0 30 0C30 0 27.8376 0.0239732 27.042 0.0239732L3 0.0239115C2.20435 0.0239115 1.90735e-06 0.0239115 1.90735e-06 0.0239115C1.90735e-06 0.0239115 1.90735e-06 1.97172 1.90735e-06 2.67477L1.90735e-06 37.348C0.000307083 37.8326 0.15098 38.3079 0.43564 38.7222C0.720301 39.1365 1.12805 39.4739 1.61456 39.6977C2.10106 39.9216 2.64771 40.0233 3.19505 39.9917C3.74239 39.9602 4.26948 39.7967 4.719 39.519L14.571 33.4247C14.6968 33.3472 14.8466 33.3056 15 33.3056C15.1534 33.3056 15.3032 33.3472 15.429 33.4247L25.281 39.5217C25.7309 39.7996 26.2586 39.9632 26.8065 39.9945C27.3543 40.0258 27.9014 39.9236 28.3881 39.6992C28.8748 39.4747 29.2825 39.1365 29.5667 38.7215C29.8509 38.3064 30.0008 37.8304 30 37.3453L30 2.67477Z" fill="#7EFE92"/>
</symbol>
<symbol id="icon-place" viewBox="0 0 16 21">
<path d="M8 10C7.2896 10 6.60829 9.73661 6.10596 9.26777C5.60363 8.79893 5.32143 8.16304 5.32143 7.5C5.32143 6.83696 5.60363 6.20107 6.10596 5.73223C6.60829 5.26339 7.2896 5 8 5C8.7104 5 9.39171 5.26339 9.89404 5.73223C10.3964 6.20107 10.6786 6.83696 10.6786 7.5C10.6786 7.8283 10.6093 8.15339 10.4747 8.45671C10.3401 8.76002 10.1428 9.03562 9.89404 9.26777C9.64531 9.49991 9.35002 9.68406 9.02505 9.8097C8.70007 9.93534 8.35175 10 8 10ZM8 0.5C6.01088 0.5 4.10322 1.2375 2.6967 2.55025C1.29018 3.86301 0.5 5.64348 0.5 7.5C0.5 12.75 8 20.5 8 20.5C8 20.5 15.5 12.75 15.5 7.5C15.5 5.64348 14.7098 3.86301 13.3033 2.55025C11.8968 1.2375 9.98912 0.5 8 0.5Z" fill="#FEFFFE"/>
</symbol>
<symbol id="icon-lang" viewBox="0 0 20 21">
<path fillRule="evenodd" clipRule="evenodd" d="M6.59215 3.18684C8.42498 2.3185 10.5195 2.17623 12.4533 2.78871C14.3871 3.4012 16.0162 4.72286 17.0122 6.48715H16.3108C15.6095 6.48715 15.1085 6.78718 15.1085 7.48725C15.1085 7.68727 15.1085 9.48744 13.1047 9.48744C11.1008 9.48744 11.1008 7.68727 11.1008 7.48725C11.1008 5.98711 10.2993 5.78709 9.39754 5.48706L7.99485 5.08702C6.99292 4.58697 6.69234 3.8869 6.49196 3.18684H6.59215ZM3.98714 2.48677C2.82187 3.36928 1.86432 4.49576 1.18174 5.78709C0.347121 7.34675 -0.0583127 9.09941 0.00676443 10.8664C0.0718416 12.6335 0.605102 14.3517 1.5522 15.846C2.49929 17.3403 3.82636 18.5572 5.39815 19.3727C6.96993 20.1883 8.73024 20.5733 10.4997 20.4885C12.0623 20.4076 13.5841 19.9625 14.9434 19.1889C16.3027 18.4153 17.4615 17.3347 18.3272 16.0337C19.1928 14.7326 19.7411 13.2472 19.9281 11.6966C20.1152 10.146 19.9358 8.57318 19.4044 7.10419C18.873 5.6352 18.0042 4.31087 16.8678 3.2373C15.7314 2.16373 14.3588 1.37075 12.8601 0.921898C11.3615 0.473047 9.77829 0.380798 8.23746 0.652543C6.69664 0.924288 5.24099 1.55247 3.98714 2.48677ZM17.413 13.5878L16.6114 13.4878H16.411C15.5076 13.4878 14.6411 13.8461 14.0022 14.4838C13.3634 15.1214 13.0045 15.9863 13.0045 16.8882V17.8882C13.9873 17.4973 14.8828 16.916 15.6394 16.178C16.3961 15.4399 16.9988 14.5596 17.413 13.5878ZM9.9987 18.4883C8.5941 18.4834 7.21546 18.1101 6.00089 17.4059C4.78632 16.7016 3.77847 15.6912 3.07832 14.4757C2.37816 13.2603 2.01027 11.8825 2.01152 10.4805C2.01276 9.07846 2.38309 7.70135 3.0854 6.48715C4.08733 6.9872 4.4881 7.9873 4.88887 8.88738L5.59022 9.98749C6.09118 10.6876 6.59215 10.9876 7.1933 11.3876C7.69427 11.6877 8.19523 11.9877 8.79639 12.6877C10.1991 14.4879 10.1991 16.9882 10.0989 18.4883H9.9987Z" fill="#FEFFFE"/>
</symbol>
<symbol id="icon-point" viewBox="0 0 12 21">
<path d="M6 12.6429C6.51562 12.6429 7.01562 12.5871 7.5 12.4754V19.7857C7.5 19.9792 7.42578 20.1466 7.27734 20.2879C7.12891 20.4293 6.95312 20.5 6.75 20.5H5.25C5.04688 20.5 4.87109 20.4293 4.72266 20.2879C4.57422 20.1466 4.5 19.9792 4.5 19.7857V12.4754C4.98437 12.5871 5.48438 12.6429 6 12.6429ZM6 0.5C7.65625 0.5 9.07031 1.05804 10.2422 2.17411C11.4141 3.29018 12 4.6369 12 6.21429C12 7.79167 11.4141 9.13839 10.2422 10.2545C9.07031 11.3705 7.65625 11.9286 6 11.9286C4.34375 11.9286 2.92969 11.3705 1.75781 10.2545C0.585938 9.13839 0 7.79167 0 6.21429C0 4.6369 0.585938 3.29018 1.75781 2.17411C2.92969 1.05804 4.34375 0.5 6 0.5ZM6 3C6.10938 3 6.19922 2.96652 6.26953 2.89955C6.33984 2.83259 6.375 2.74702 6.375 2.64286C6.375 2.53869 6.33984 2.45312 6.26953 2.38616C6.19922 2.3192 6.10938 2.28571 6 2.28571C4.85938 2.28571 3.88672 2.6689 3.08203 3.43527C2.27734 4.20164 1.875 5.12798 1.875 6.21429C1.875 6.31845 1.91016 6.40402 1.98047 6.47098C2.05078 6.53795 2.14062 6.57143 2.25 6.57143C2.35937 6.57143 2.44922 6.53795 2.51953 6.47098C2.58984 6.40402 2.625 6.31845 2.625 6.21429C2.625 5.32887 2.95508 4.5718 3.61523 3.94308C4.27539 3.31436 5.07031 3 6 3Z" fill="#FEFFFE"/>
</symbol>


<symbol id="icon-experience" viewBox="0 0 24 24">
<path d="M21.707 13.2334C19.53 15.3141 15.765 16.355 12 16.355C8.235 16.355 4.47 15.3141 2.293 13.2334L2 12.9534V19.0885C2 19.5954 2.21071 20.0816 2.58579 20.4401C2.96086 20.7986 3.46957 21 4 21H20C20.5304 21 21.0391 20.7986 21.4142 20.4401C21.7893 20.0816 22 19.5954 22 19.0885V12.9534L21.707 13.2334Z" fill="#FEFFFE"/>
<path d="M20 6.82308H17V5.86731C17 5.10685 16.6839 4.37754 16.1213 3.83981C15.5587 3.30209 14.7956 3 14 3H10C9.20435 3 8.44129 3.30209 7.87868 3.83981C7.31607 4.37754 7 5.10685 7 5.86731V6.82308H4C3.46957 6.82308 2.96086 7.02447 2.58579 7.38295C2.21071 7.74144 2 8.22764 2 8.73461V10.2505L3.707 11.882C7.35 15.361 16.65 15.361 20.293 11.882L22 10.2505V8.73461C22 8.22764 21.7893 7.74144 21.4142 7.38295C21.0391 7.02447 20.5304 6.82308 20 6.82308ZM12 12.5577C11.8022 12.5577 11.6089 12.5016 11.4444 12.3966C11.28 12.2916 11.1518 12.1423 11.0761 11.9677C11.0004 11.793 10.9806 11.6009 11.0192 11.4155C11.0578 11.2301 11.153 11.0598 11.2929 10.9261C11.4327 10.7924 11.6109 10.7014 11.8049 10.6645C11.9989 10.6276 12.2 10.6466 12.3827 10.7189C12.5654 10.7912 12.7216 10.9138 12.8315 11.0709C12.9414 11.2281 13 11.4129 13 11.6019C13 11.8554 12.8946 12.0985 12.7071 12.2778C12.5196 12.457 12.2652 12.5577 12 12.5577ZM15 6.82308H9V5.86731C9 5.61382 9.10536 5.37072 9.29289 5.19148C9.48043 5.01223 9.73478 4.91154 10 4.91154H14C14.2652 4.91154 14.5196 5.01223 14.7071 5.19148C14.8946 5.37072 15 5.61382 15 5.86731V6.82308Z" fill="#FEFFFE"/>
</symbol>
<symbol id="icon-clock" viewBox="0 0 24 24">
<path d="M12 2C10.6868 2 9.38642 2.25866 8.17317 2.7612C6.95991 3.26375 5.85752 4.00035 4.92893 4.92893C3.05357 6.8043 2 9.34784 2 12C2 14.6522 3.05357 17.1957 4.92893 19.0711C5.85752 19.9997 6.95991 20.7362 8.17317 21.2388C9.38642 21.7413 10.6868 22 12 22C14.6522 22 17.1957 20.9464 19.0711 19.0711C20.9464 17.1957 22 14.6522 22 12C22 10.6868 21.7413 9.38642 21.2388 8.17317C20.7362 6.95991 19.9997 5.85752 19.0711 4.92893C18.1425 4.00035 17.0401 3.26375 15.8268 2.7612C14.6136 2.25866 13.3132 2 12 2ZM16.2 16.2L11 13V7H12.5V12.2L17 14.9L16.2 16.2Z" fill="#FEFFFE"/>
</symbol>
<symbol id="icon-done" viewBox="0 0 20 20">
<rect width="20" height="20" rx="10" fill="#FEFFFE"/>
<path fillRule="evenodd" clipRule="evenodd" d="M0 10C0 4.47768 4.47768 0 10 0C15.5223 0 20 4.47768 20 10C20 15.5223 15.5223 20 10 20C4.47768 20 0 15.5223 0 10ZM1.69643 10C1.69643 14.5848 5.41518 18.3036 10 18.3036C14.5848 18.3036 18.3036 14.5848 18.3036 10C18.3036 5.41518 14.5848 1.69643 10 1.69643C5.41518 1.69643 1.69643 5.41518 1.69643 10ZM13.015 7H13.8569C13.9735 7 14.0417 7.11636 13.9717 7.1997L10.1916 11.7912C10.1388 11.8558 10.0691 11.9084 9.98844 11.9447C9.90775 11.9811 9.81834 12 9.72762 12C9.63691 12 9.5475 11.9811 9.46681 11.9447C9.38612 11.9084 9.31647 11.8558 9.26363 11.7912L7.02715 9.07403C6.95894 8.9907 7.02715 8.87434 7.14382 8.87434H7.98564C8.17052 8.87434 8.34283 8.95296 8.45053 9.08347L9.72852 10.637L12.5501 7.20913C12.6578 7.07705 12.832 7 13.015 7Z" fill="#020202"/>
</symbol>
</defs>
</svg>
