<svg aria-hidden="true" style="position: absolute; width: 0; height: 0; overflow: hidden;" version="1.1" xmlns="http://www.w3.org/2000/svg" xmlns:xlink="http://www.w3.org/1999/xlink">
<defs>
<symbol id="icon-select_open" viewBox="0 0 32 32">
<path d="M10.289 20c-0.999 0-1.692-0.355-2.081-1.066-0.39-0.71-0.232-1.341 0.472-1.89l5.768-4.522c0.222-0.174 0.462-0.305 0.721-0.392s0.536-0.13 0.832-0.13c0.296 0 0.573 0.043 0.832 0.13s0.499 0.218 0.72 0.392l5.769 4.522c0.702 0.55 0.859 1.18 0.47 1.892-0.389 0.71-1.082 1.065-2.079 1.064h-11.425z"></path>
</symbol>
<symbol id="icon-select_close" viewBox="0 0 32 32">
<path d="M10.289 12c-0.999 0-1.692 0.355-2.081 1.066-0.39 0.71-0.232 1.341 0.472 1.89l5.768 4.522c0.222 0.174 0.462 0.305 0.721 0.392 0.259 0.086 0.536 0.13 0.832 0.13s0.573-0.044 0.832-0.13c0.259-0.087 0.499-0.218 0.72-0.392l5.769-4.522c0.702-0.55 0.859-1.18 0.47-1.892-0.389-0.71-1.082-1.065-2.079-1.064h-11.425z"></path>
</symbol>
<symbol id="icon-telegram" viewBox="0 0 32 32">
<path d="M25.894 6.213c0.222-0.096 0.48-0.152 0.752-0.152 1.071 0 1.939 0.868 1.939 1.939 0 0.111-0.009 0.22-0.027 0.326l0.002-0.011-2.932 17.786c-0.284 1.716-2.167 2.7-3.74 1.845-1.317-0.715-3.272-1.816-5.030-2.966-0.88-0.575-3.572-2.417-3.242-3.729 0.285-1.121 4.81-5.333 7.396-7.838 1.015-0.983 0.553-1.552-0.647-0.646-2.977 2.247-7.755 5.664-9.334 6.626-1.394 0.849-2.121 0.993-2.99 0.849-1.585-0.264-3.055-0.673-4.255-1.17-1.621-0.672-1.542-2.901-0.001-3.55l22.109-9.309z"></path>
</symbol>
<symbol id="icon-tel" viewBox="0 0 32 32">
<path d="M23.541 31.995c-2.309-0.085-8.848-0.989-15.699-7.835-6.848-6.848-7.75-13.387-7.837-15.696-0.128-3.518 2.566-6.936 5.68-8.272 0.275-0.122 0.596-0.193 0.933-0.193 0.52 0 1 0.168 1.39 0.453l-0.007-0.005c2.565 1.869 4.334 4.694 5.854 6.917 0.264 0.381 0.422 0.853 0.422 1.363 0 0.726-0.321 1.377-0.829 1.819l-0.003 0.002-3.126 2.32c-0.195 0.141-0.32 0.368-0.32 0.624 0 0.133 0.034 0.258 0.093 0.367l-0.002-0.004c0.709 1.288 1.968 3.203 3.411 4.646 1.445 1.442 3.451 2.784 4.827 3.573 0.109 0.062 0.24 0.099 0.379 0.099 0.273 0 0.513-0.142 0.651-0.355l0.002-0.003 2.035-3.098c0.444-0.586 1.141-0.961 1.925-0.961 0.513 0 0.988 0.16 1.379 0.433l-0.008-0.005c2.256 1.562 4.886 3.299 6.813 5.766 0.31 0.395 0.497 0.899 0.497 1.447 0 0.337-0.071 0.658-0.198 0.948l0.006-0.015c-1.344 3.13-4.736 5.794-8.267 5.664z"></path>
</symbol>
<symbol id="icon-search" viewBox="0 0 32 32">
<path d="M30.822 29.572l-7.58-7.582c1.937-2.218 3.118-5.14 3.118-8.338 0-7.018-5.689-12.708-12.708-12.708s-12.708 5.689-12.708 12.708c0 7.018 5.689 12.708 12.708 12.708 3.198 0 6.12-1.181 8.353-3.131l-0.015 0.013 7.58 7.58c0.16 0.16 0.381 0.259 0.626 0.259 0.489 0 0.885-0.396 0.885-0.885 0-0.244-0.099-0.466-0.259-0.626v0zM2.756 13.672c0-6.030 4.888-10.918 10.918-10.918s10.918 4.888 10.918 10.918c0 6.030-4.888 10.918-10.918 10.918v0c-6.027-0.008-10.91-4.891-10.918-10.917v-0.001z"></path>
</symbol>
<symbol id="icon-saved" viewBox="0 0 32 32">
<path d="M25.6 29.878l-8.042-5.034-1.558-1.023-1.697 1.070c0.504-0.312 1.158-0.73 1.697-1.070l1.762 1.155 7.838 4.902zM28 2.14v-2.14s-1.73 0.019-2.366 0.019h-21.634v29.859c0 0.388 0.121 0.768 0.349 1.099s0.554 0.602 0.943 0.781c0.325 0.151 0.705 0.24 1.105 0.24 0.056 0 0.111-0.002 0.166-0.005l-0.008 0c0.454-0.025 0.871-0.163 1.23-0.385l-0.011 0.006 7.882-4.875c0.097-0.060 0.215-0.096 0.342-0.096 0.001 0 0.001 0 0.002 0h-0c0 0 0.001 0 0.002 0 0.126 0 0.244 0.036 0.345 0.098l-0.003-0.002 7.882 4.878c0.36 0.222 0.782 0.353 1.221 0.378 0.047 0.003 0.101 0.005 0.156 0.005 0.402 0 0.783-0.089 1.125-0.248l-0.016 0.007c0.386-0.177 0.705-0.443 0.938-0.774l0.005-0.007c0.227-0.333 0.347-0.714 0.346-1.102v-27.736z"></path>
</symbol>
<symbol id="icon-right-arrow" viewBox="0 0 32 32">
<path d="M17.79 15.771l-5.157 4.816c-0.179 0.168-0.29 0.405-0.29 0.668 0 0.242 0.094 0.461 0.246 0.625l-0.001-0.001c0.344 0.369 0.924 0.389 1.292 0.044l5.212-4.869c0.347-0.32 0.564-0.777 0.564-1.285s-0.216-0.964-0.562-1.283l-0.001-0.001-5.212-4.87c-0.163-0.152-0.382-0.245-0.623-0.245-0.001 0-0.001 0-0.002 0h0c-0.245 0-0.488 0.097-0.667 0.29-0.152 0.163-0.246 0.383-0.246 0.624 0 0.263 0.111 0.501 0.289 0.668l0.001 0 5.157 4.817z"></path>
</symbol>
<symbol id="icon-logo" viewBox="0 0 32 32">
<path d="M1.714 15.924c0.248 0.132 0.395 0.371 0.395 0.67 0 0.447-0.403 0.806-0.9 0.806h-1.209v-2.792h1.177c0.493 0 0.859 0.307 0.859 0.718-0.002 0.248-0.128 0.467-0.319 0.596l-0.003 0.002zM1.437 15.418c0-0.176-0.126-0.295-0.318-0.295h-0.517v0.594h0.517c0.191 0 0.318-0.124 0.318-0.299zM1.152 16.846c0.204 0 0.338-0.132 0.338-0.315 0-0.179-0.134-0.311-0.338-0.311h-0.55v0.626h0.55z"></path>
<path d="M4.438 17.396l-0.199-0.527h-1.132l-0.196 0.527h-0.655l1.12-2.792h0.582l1.152 2.792h-0.672zM3.673 15.342l-0.375 1.001h0.749l-0.375-1.001z"></path>
<path d="M6.18 16.838h1.226v0.558h-2.154v-0.088l1.189-2.142h-1.124v-0.562h2.040v0.112l-1.177 2.122z"></path>
<path d="M9.735 17.396l-0.199-0.527h-1.132l-0.195 0.527h-0.656l1.12-2.792h0.582l1.153 2.792h-0.672zM8.969 15.342l-0.375 1.001h0.749l-0.375-1.001z"></path>
<path d="M16.096 12.014c-0.569 0.053-1.095 0.229-1.562 0.526-0.148 0.094-0.391 0.273-0.41 0.304-0.006 0.011-0.067 0.062-0.132 0.116-0.182 0.144-0.185 0.161-0.008 0.045 0.299-0.196 0.648-0.344 1.023-0.423l0.020-0.003c0.183-0.039 0.233-0.042 0.567-0.044 0.325 0 0.387 0.005 0.55 0.038 1.157 0.232 2.066 1.067 2.398 2.203 0.078 0.27 0.070 0.275-0.070 0.030-0.236-0.406-0.301-0.509-0.397-0.637-0.749-0.989-2.015-1.504-3.252-1.322-1.167 0.172-2.166 0.913-2.64 1.96-0.171 0.366-0.276 0.792-0.29 1.242l-0 0.005c-0.043 1.18 0.524 2.258 1.538 2.923 0.266 0.176 0.727 0.371 1.151 0.49 0.013 0.003-0.062-0.037-0.167-0.092-0.223-0.116-0.292-0.158-0.454-0.278-0.453-0.338-0.805-0.821-0.987-1.353-0.346-1.018-0.108-2.132 0.634-2.975 0.081-0.092 0.155-0.172 0.164-0.176 0.022-0.014 0.021-0.012-0.12 0.197-0.242 0.359-0.432 0.818-0.515 1.247-0.057 0.293-0.070 0.718-0.030 1.016 0.158 1.219 0.984 2.269 2.128 2.706 0.402 0.153 0.748 0.225 1.156 0.239 1.2 0.042 2.335-0.531 2.99-1.509 0.268-0.397 0.456-0.869 0.53-1.379l0.002-0.018c0.042-0.293 0.029-0.751-0.032-1.092l-0.048-0.265-0.009 0.304c-0.010 0.279-0.030 0.448-0.078 0.627-0.298 1.133-1.231 1.957-2.447 2.16-0.234 0.039-0.649 0.047-0.896 0.015-0.207-0.027-0.508-0.089-0.561-0.117-0.016-0.009 0.147-0.014 0.429-0.013 0.491 0.003 0.587-0.005 0.917-0.083 0.658-0.155 1.194-0.454 1.666-0.93 0.277-0.279 0.453-0.526 0.631-0.888 0.118-0.232 0.212-0.5 0.268-0.782l0.003-0.020c0.022-0.117 0.046-0.234 0.054-0.259 0.024-0.075 0.008-0.697-0.022-0.874-0.147-0.894-0.595-1.642-1.304-2.177-0.67-0.507-1.559-0.763-2.388-0.685zM17.333 12.388c0.842 0.281 1.538 0.877 1.921 1.645 0.441 0.886 0.438 1.909-0.010 2.794-0.269 0.534-0.66 0.969-1.172 1.301-0.137 0.091-0.338 0.204-0.359 0.204-0.006 0 0.073-0.056 0.177-0.123 0.944-0.613 1.495-1.692 1.452-2.834-0.021-0.518-0.124-0.925-0.354-1.389-0.177-0.357-0.346-0.591-0.626-0.872-0.32-0.32-0.681-0.56-1.079-0.719-0.135-0.055-0.167-0.070-0.148-0.070 0.005 0 0.094 0.028 0.198 0.064zM16.41 12.396c-0.005 0.005-0.019 0.006-0.030 0.002-0.013-0.005-0.008-0.009 0.010-0.009 0.017-0.002 0.027 0.003 0.021 0.008zM16.622 12.434c1.167 0.272 2.090 1.152 2.391 2.28 0.086 0.325 0.102 0.459 0.102 0.833 0 0.364-0.014 0.474-0.096 0.796-0.226 0.879-0.875 1.657-1.704 2.043-0.198 0.092-0.25 0.104-0.096 0.020 0.596-0.318 1.031-0.766 1.325-1.361 0.226-0.462 0.328-0.905 0.327-1.436 0-0.783-0.236-1.469-0.717-2.091-0.12-0.154-0.43-0.456-0.595-0.579-0.327-0.24-0.746-0.44-1.105-0.526l-0.032-0.008 0.032-0.002c0.017 0 0.092 0.012 0.167 0.030zM15.731 13.027c0.239 0.025 0.536 0.086 0.756 0.158 0.188 0.061 0.663 0.281 0.741 0.342 0.022 0.017-0.049-0.011-0.159-0.061-0.507-0.236-0.953-0.326-1.529-0.309-0.405 0.012-0.738 0.078-1.113 0.222-0.705 0.27-1.32 0.776-1.712 1.408-0.255 0.412-0.427 0.913-0.477 1.392-0.027 0.264-0.021 0.457 0.024 0.821 0.006 0.058 0.006 0.059-0.008 0.016-0.084-0.251-0.121-0.84-0.073-1.205 0.159-1.228 0.985-2.229 2.163-2.625 0.319-0.109 0.687-0.172 1.070-0.172 0.112 0 0.222 0.005 0.331 0.016l-0.014-0.001zM16.155 13.362c0.489 0.062 0.952 0.232 1.345 0.492 0.226 0.148 0.317 0.229 0.115 0.101-0.306-0.194-0.647-0.328-1.025-0.406-0.244-0.050-0.711-0.070-0.966-0.041-0.994 0.117-1.848 0.633-2.41 1.382l-0.007 0.009c-0.575 0.769-0.775 1.763-0.531 2.653 0.040 0.15 0.011 0.101-0.046-0.075-0.576-1.781 0.537-3.658 2.413-4.068 0.325-0.072 0.771-0.089 1.111-0.047zM16.348 13.682c0.898 0.094 1.666 0.535 2.157 1.236 0.126 0.181 0.14 0.237 0.153 0.629 0.006 0.229 0.003 0.343-0.018 0.503-0.105 0.805-0.513 1.526-1.143 2.024-0.397 0.312-0.915 0.527-1.427 0.595-0.317 0.042-0.364 0.034-0.694-0.12-0.861-0.401-1.5-1.153-1.726-2.034-0.073-0.284-0.094-0.485-0.084-0.796 0.013-0.424 0.086-0.744 0.25-1.092 0.065-0.14 0.128-0.203 0.371-0.371 0.63-0.437 1.427-0.649 2.16-0.573zM13.461 15.511c-0.005 0.013-0.010 0.008-0.010-0.009-0.002-0.017 0.003-0.027 0.008-0.020 0.005 0.005 0.006 0.019 0.002 0.030zM13.437 15.864c-0.008 0.357 0.014 0.545 0.099 0.849 0.335 1.195 1.403 2.11 2.732 2.341 0.268 0.045 0.829 0.050 1.079 0.008 0.639-0.109 1.211-0.375 1.615-0.751 0.054-0.050 0.099-0.086 0.099-0.076 0 0.022-0.324 0.328-0.438 0.412-0.462 0.345-1.019 0.566-1.602 0.638-0.195 0.023-0.591 0.019-0.8-0.008-0.722-0.094-1.385-0.415-1.897-0.924-0.276-0.271-0.442-0.501-0.612-0.839-0.234-0.467-0.338-0.941-0.321-1.467 0.006-0.198 0.035-0.492 0.049-0.492 0.002 0 0 0.139-0.003 0.309zM13.254 16.096c-0.005 0.016-0.008 0.006-0.008-0.019 0-0.027 0.003-0.037 0.008-0.028 0.002 0.007 0.002 0.015 0.002 0.023s-0.001 0.016-0.003 0.024l0-0.001zM13.258 16.526c0.078 0.966 0.604 1.848 1.443 2.419 0.365 0.248 0.845 0.448 1.286 0.534 0.3 0.059 0.513 0.076 0.81 0.067 0.658-0.023 1.229-0.204 1.777-0.566 0.171-0.114 0.174-0.114 0.088-0.038-0.115 0.103-0.33 0.253-0.513 0.356-0.371 0.213-0.807 0.363-1.271 0.421l-0.017 0.002c-0.195 0.025-0.591 0.020-0.802-0.006-1.245-0.161-2.258-1.012-2.65-2.151l-0.007-0.023c-0.132-0.395-0.177-0.68-0.172-1.103 0.002-0.147 0.005-0.234 0.008-0.195 0.002 0.039 0.011 0.167 0.021 0.284z"></path>
<path d="M22.645 17.452c-0.656 0-1.108-0.359-1.108-0.957h0.623c0 0.267 0.228 0.399 0.481 0.399 0.232 0 0.46-0.12 0.46-0.327 0-0.219-0.261-0.279-0.57-0.347-0.432-0.104-0.953-0.227-0.953-0.83 0-0.534 0.403-0.838 1.034-0.838 0.656 0 1.026 0.343 1.026 0.901h-0.607c0-0.243-0.204-0.355-0.436-0.355-0.2 0-0.399 0.084-0.399 0.267 0 0.195 0.244 0.255 0.55 0.327 0.432 0.108 0.977 0.239 0.977 0.865 0 0.602-0.489 0.893-1.079 0.893z"></path>
<path d="M26.596 17.396h-0.753l-1.006-1.36v1.36h-0.615v-2.792h0.615v1.292l0.937-1.292h0.717l-0.969 1.34 1.075 1.452z"></path>
<path d="M26.894 17.396v-2.792h0.615v2.792h-0.615z"></path>
<path d="M28.777 16.838h1.095v0.558h-1.71v-2.792h0.615v2.234z"></path>
<path d="M30.905 16.838h1.095v0.558h-1.71v-2.792h0.615v2.234z"></path>
</symbol>
<symbol id="icon-location" viewBox="0 0 32 32">
<path d="M16 15.333c-0.947 0-1.856-0.351-2.525-0.976-0.639-0.587-1.040-1.425-1.047-2.356v-0.001c0-0.884 0.377-1.732 1.047-2.357 0.657-0.605 1.538-0.976 2.506-0.976 0.007 0 0.014 0 0.020 0h-0.001c0.947 0 1.856 0.351 2.525 0.976 0.669 0.627 1.047 1.473 1.047 2.357 0 0.437-0.093 0.871-0.272 1.276-0.192 0.422-0.453 0.781-0.773 1.078l-0.002 0.002c-0.325 0.304-0.71 0.549-1.134 0.716l-0.024 0.008c-0.433 0.167-0.897 0.253-1.367 0.253zM16 2.667c-2.653 0-5.196 0.983-7.071 2.733-1.876 1.751-2.929 4.124-2.929 6.6 0 7 10 17.333 10 17.333s10-10.333 10-17.333c0-2.476-1.053-4.849-2.929-6.6-1.875-1.751-4.417-2.733-7.071-2.733z"></path>
</symbol>
<symbol id="icon-lnkedIn" viewBox="0 0 32 32">
<path d="M7.271 10.397v21.603h-6.875v-21.603h6.875zM7.708 3.728c0.013 1.060-0.336 1.947-1.052 2.659-0.715 0.712-1.656 1.068-2.823 1.068h-0.041c-1.139 0-2.056-0.356-2.751-1.067-0.693-0.715-1.041-1.601-1.041-2.661 0-1.075 0.357-1.964 1.073-2.669 0.713-0.705 1.649-1.057 2.801-1.057 1.153 0 2.077 0.352 2.771 1.057 0.695 0.705 1.049 1.595 1.063 2.671zM32 19.619v12.381h-6.853v-11.553c0-1.525-0.283-2.72-0.844-3.587-0.563-0.864-1.441-1.296-2.636-1.296-0.875 0-1.608 0.251-2.197 0.752-0.58 0.494-1.032 1.12-1.313 1.833l-0.011 0.031c-0.152 0.436-0.228 1.024-0.228 1.765v12.055h-6.856c0.027-5.799 0.041-10.5 0.041-14.104s-0.007-5.755-0.020-6.452l-0.021-1.047h6.853v3.14h-0.040c0.274-0.463 0.556-0.862 0.866-1.237l-0.013 0.016c0.292-0.349 0.684-0.727 1.177-1.133s1.097-0.723 1.813-0.948c0.686-0.215 1.475-0.339 2.293-0.339 0.032 0 0.064 0 0.096 0.001l-0.005-0c2.375 0 4.285 0.825 5.729 2.475 1.445 1.649 2.168 4.065 2.168 7.248z"></path>
</symbol>
<symbol id="icon-left-arrow" viewBox="0 0 32 32">
<path d="M14.21 15.771l5.158-4.817c0.368-0.345 0.389-0.923 0.044-1.293-0.167-0.179-0.404-0.29-0.668-0.29-0.242 0-0.461 0.094-0.625 0.247l0-0-5.212 4.869c-0.347 0.32-0.564 0.777-0.564 1.285s0.216 0.964 0.562 1.283l0.001 0.001 5.212 4.87c0.176 0.165 0.4 0.246 0.624 0.246 0.245 0 0.488-0.097 0.667-0.29 0.152-0.163 0.246-0.383 0.246-0.624 0-0.263-0.111-0.501-0.289-0.668l-0-0-5.157-4.817z"></path>
</symbol>
<symbol id="icon-instagram" viewBox="0 0 32 32">
<path d="M16.21 10.877c-2.827 0.006-5.117 2.296-5.123 5.122v0.001c0.006 2.827 2.296 5.117 5.122 5.123h0.001c2.826-0.007 5.115-2.296 5.121-5.122v-0.001c-0.006-2.826-2.295-5.116-5.121-5.123h-0.001zM31.571 16c0-2.121 0.019-4.224-0.1-6.34-0.119-2.46-0.68-4.643-2.478-6.441-1.802-1.802-3.981-2.359-6.44-2.477-2.121-0.12-4.224-0.102-6.341-0.102-2.12 0-4.223-0.018-6.34 0.101-2.459 0.119-4.641 0.68-6.44 2.478-1.802 1.802-2.359 3.981-2.478 6.441-0.119 2.121-0.1 4.223-0.1 6.34s-0.019 4.224 0.1 6.34c0.119 2.46 0.68 4.643 2.478 6.441 1.802 1.802 3.981 2.359 6.44 2.478 2.121 0.119 4.224 0.1 6.34 0.1 2.122 0 4.224 0.019 6.341-0.1 2.459-0.119 4.641-0.68 6.44-2.478 1.802-1.802 2.359-3.981 2.478-6.441 0.123-2.117 0.1-4.219 0.1-6.34zM16.21 23.881c-0.004 0-0.008 0-0.013 0-4.346 0-7.869-3.523-7.869-7.869 0-0.004 0-0.008 0-0.012v0.001c0-0.003 0-0.007 0-0.012 0-4.346 3.523-7.869 7.869-7.869 0.005 0 0.009 0 0.014 0h-0.001c0.003 0 0.007 0 0.010 0 4.346 0 7.869 3.523 7.869 7.869 0 0.004 0 0.008 0 0.012v-0.001c0 0.003 0 0.007 0 0.012 0 4.346-3.523 7.869-7.869 7.869-0.005 0-0.009 0-0.014 0h0.001zM24.413 9.638c-0.001 0-0.002 0-0.003 0-1.015 0-1.838-0.823-1.838-1.838 0-0.001 0-0.002 0-0.003v0c0-1.019 0.822-1.841 1.841-1.841 0.002 0 0.004 0 0.007 0 1.015 0 1.838 0.823 1.838 1.838 0 0.51-0.208 0.971-0.543 1.304l-0 0c-0.332 0.332-0.791 0.538-1.298 0.538-0.001 0-0.002 0-0.003 0h0z"></path>
</symbol>
<symbol id="icon-facebook" viewBox="0 0 32 32">
<path d="M16 0c-8.837 0-16 7.163-16 16s7.163 16 16 16 16-7.163 16-16-7.163-16-16-16zM19.789 11.057h-2.403c-0.285 0-0.601 0.373-0.601 0.873v1.736h3.008l-0.455 2.476h-2.553v7.436h-2.84v-7.436h-2.573v-2.476h2.573v-1.456c0-2.091 1.451-3.789 3.44-3.789h2.405v2.636z"></path>
</symbol>
<symbol id="icon-email" viewBox="0 0 32 32">
<path d="M28.8 4h-25.6c-1.76 0-3.2 1.35-3.2 3v18c0 1.65 1.44 3 3.2 3h25.6c1.76 0 3.2-1.35 3.2-3v-18c0-1.65-1.44-3-3.2-3zM28.16 10.374l-10.464 6.138c-1.040 0.614-2.352 0.614-3.392 0l-10.464-6.138c-0.163-0.086-0.3-0.199-0.411-0.334l-0.002-0.002c-0.177-0.207-0.285-0.479-0.285-0.776 0-0.253 0.079-0.488 0.213-0.681l-0.003 0.004c0.101-0.148 0.227-0.27 0.373-0.365l0.005-0.003c0.218-0.144 0.485-0.231 0.772-0.231 0.098 0 0.193 0.010 0.285 0.029l-0.009-0.002c0.19 0.036 0.359 0.106 0.508 0.203l-0.005-0.003 10.72 6.286 10.72-6.286c0.217-0.143 0.483-0.228 0.768-0.228 0.099 0 0.196 0.010 0.289 0.030l-0.009-0.002c0.19 0.037 0.359 0.107 0.508 0.205l-0.005-0.003c0.151 0.099 0.277 0.222 0.375 0.367l0.003 0.005c0.128 0.19 0.204 0.425 0.204 0.677 0 0.112-0.015 0.22-0.043 0.323l0.002-0.009c-0.050 0.177-0.132 0.331-0.24 0.463l0.002-0.002c-0.113 0.137-0.25 0.25-0.406 0.332l-0.007 0.004z"></path>
</symbol>
<symbol id="icon-dropdown" viewBox="0 0 32 32">
<path d="M16 22.667c-0.804 0-1.584-0.375-2.14-1.027l-8.116-9.501c-0.573-0.673-0.543-1.728 0.072-2.357 0.262-0.276 0.632-0.447 1.041-0.447 0.447 0 0.847 0.204 1.11 0.525l0.002 0.002 8.031 9.4 8.031-9.4c0.265-0.324 0.664-0.529 1.112-0.529 0.41 0 0.78 0.172 1.041 0.448l0.001 0.001c0.613 0.629 0.647 1.684 0.072 2.357l-8.116 9.501c-0.557 0.652-1.337 1.027-2.14 1.027z"></path>
</symbol>
<symbol id="icon-dn-header" viewBox="0 0 32 32">
<path d="M10.624 11.294c-0.939 0-1.592 0.418-1.958 1.254-0.367 0.838-0.218 1.577 0.444 2.225l5.429 5.32c0.365 0.379 0.876 0.614 1.443 0.614 0.006 0 0.013-0 0.019-0h-0.001c0.006 0 0.013 0 0.020 0 0.566 0 1.078-0.235 1.442-0.613l0.001-0.001 5.429-5.32c0.661-0.648 0.809-1.391 0.442-2.227-0.365-0.836-1.016-1.254-1.958-1.252h-10.75z"></path>
</symbol>
<symbol id="icon-desktop" viewBox="0 0 32 32">
<path d="M26.667 2.667h-21.333c-1.473 0-2.667 1.194-2.667 2.667v0 14.667c0 1.473 1.194 2.667 2.667 2.667v0h9.333v4h-4c-0.736 0-1.333 0.597-1.333 1.333s0.597 1.333 1.333 1.333v0h10.667c0.736 0 1.333-0.597 1.333-1.333s-0.597-1.333-1.333-1.333v0h-4v-4h9.333c1.473 0 2.667-1.194 2.667-2.667v0-14.667c0-1.473-1.194-2.667-2.667-2.667v0zM26.667 5.333v9.333h-21.333v-9.333h21.333zM5.333 20v-2.667h21.333v2.667h-21.333z"></path>
</symbol>
<symbol id="icon-check" viewBox="0 0 32 32">
<path d="M27.333 8.547l-16 16-7.333-7.333 1.88-1.88 5.453 5.44 14.12-14.107 1.88 1.88z"></path>
</symbol>
</defs>
</svg>
