<svg width="120" height="120" viewBox="0 0 120 120" fill="none" xmlns="http://www.w3.org/2000/svg">
<g clip-path="url(#clip0_8091_1165)">
<path d="M25 100H39.44C36.46 102.605 34.24 106.045 33.21 110H25C16.715 110 10 103.285 10 95V85H20V95C20 97.76 22.24 100 25 100ZM25 10C16.715 10 10 16.715 10 25V31.485C12.32 30.545 14.845 30 17.5 30C18.355 30 19.175 30.145 20 30.25V25C20 22.24 22.24 20 25 20H39.57C40.29 19.37 40.97 18.69 41.785 18.17C40.66 15.67 40 12.915 40 10H25ZM100 25V30.25C100.825 30.14 101.645 30 102.5 30C105.155 30 107.68 30.545 110 31.485V25C110 16.715 103.285 10 95 10H80C80 12.915 79.34 15.67 78.215 18.17C79.03 18.69 79.705 19.37 80.43 20H95C97.76 20 100 22.24 100 25ZM100 95C100 97.76 97.76 100 95 100H80.56C83.54 102.605 85.76 106.045 86.79 110H95C103.285 110 110 103.285 110 95V85H100V95ZM60 20C65.525 20 70 15.525 70 10C70 4.475 65.525 0 60 0C54.475 0 50 4.475 50 10C50 15.525 54.475 20 60 20ZM67.5 25H52.5C46.985 25 42.5 29.485 42.5 35V40H52.5V35H67.5V40H77.5V35C77.5 29.485 73.015 25 67.5 25ZM60 100C65.525 100 70 95.525 70 90C70 84.475 65.525 80 60 80C54.475 80 50 84.475 50 90C50 95.525 54.475 100 60 100ZM67.5 105H52.5C46.985 105 42.5 109.485 42.5 115V120H52.5V115H67.5V120H77.5V115C77.5 109.485 73.015 105 67.5 105ZM110 65H95C89.485 65 85 69.485 85 75V80H95V75H110V80H120V75C120 69.485 115.515 65 110 65ZM10 75H25V80H35V75C35 69.485 30.515 65 25 65H10C4.485 65 0 69.485 0 75V80H10V75ZM102.5 40C96.975 40 92.5 44.475 92.5 50C92.5 55.525 96.975 60 102.5 60C108.025 60 112.5 55.525 112.5 50C112.5 44.475 108.025 40 102.5 40ZM17.5 60C23.025 60 27.5 55.525 27.5 50C27.5 44.475 23.025 40 17.5 40C11.975 40 7.5 44.475 7.5 50C7.5 55.525 11.975 60 17.5 60Z" fill="url(#paint0_linear_8091_1165)"/>
</g>
<defs>
<linearGradient id="paint0_linear_8091_1165" x1="1.98529" y1="6.5625" x2="124.702" y2="12.4993" gradientUnits="userSpaceOnUse">
<stop stop-color="#7EFE92"/>
<stop offset="1" stop-color="#E9FB88"/>
</linearGradient>
<clipPath id="clip0_8091_1165">
<rect width="120" height="120" fill="white"/>
</clipPath>
</defs>
</svg>
