<svg width="120" height="120" viewBox="0 0 120 120" fill="none" xmlns="http://www.w3.org/2000/svg">
<path d="M27.5 35C17.85 35 10 27.15 10 17.5C10 7.85 17.85 0 27.5 0C37.15 0 45 7.85 45 17.5C45 27.15 37.15 35 27.5 35ZM72.5 35C62.85 35 55 27.15 55 17.5C55 7.85 62.85 0 72.5 0C82.15 0 90 7.85 90 17.5C90 27.15 82.15 35 72.5 35ZM110 85C110 82.245 109.445 79.645 108.62 77.165L117.825 71.865L112.835 63.2L103.635 68.5C100.105 64.52 95.405 61.61 90.005 60.51V50.005H80.005V60.51C74.605 61.61 69.9 64.52 66.375 68.5L57.175 63.2L52.185 71.865L61.39 77.165C60.565 79.645 60.01 82.245 60.01 85C60.01 87.755 60.565 90.355 61.39 92.835L52.185 98.135L57.175 106.8L66.375 101.5C69.905 105.48 74.605 108.39 80.005 109.49V119.995H90.005V109.49C95.405 108.39 100.11 105.48 103.635 101.5L112.835 106.8L117.825 98.135L108.62 92.835C109.445 90.355 110 87.755 110 85ZM85 92.5C80.865 92.5 77.5 89.135 77.5 85C77.5 80.865 80.865 77.5 85 77.5C89.135 77.5 92.5 80.865 92.5 85C92.5 89.135 89.135 92.5 85 92.5ZM41.715 72.81C42.64 69.53 43.885 66.385 45.49 63.455C47.72 59.105 50.45 55.59 54.755 51.75C57.25 49.48 59.98 47.475 62.935 45.805C59.735 42.26 55.14 40 50 40C40.35 40 32.5 47.85 32.5 57.5C32.5 64.14 36.245 69.87 41.715 72.81ZM22.5 57.5C22.5 50.86 24.87 44.76 28.805 40H15C6.73 40 0 46.73 0 55V70H25.605C23.635 66.19 22.5 61.94 22.5 57.5ZM38.525 94.465L50.125 87.78C50.04 86.85 50 85.925 50 85C50 84.075 50.04 83.15 50.125 82.22L46.27 80H35C26.73 80 20 86.73 20 95V110H47.47L38.525 94.465Z" fill="url(#paint0_linear_8092_1269)"/>
<defs>
<linearGradient id="paint0_linear_8092_1269" x1="1.94931" y1="6.56223" x2="122.452" y2="12.2865" gradientUnits="userSpaceOnUse">
<stop stop-color="#7EFE92"/>
<stop offset="1" stop-color="#E9FB88"/>
</linearGradient>
</defs>
</svg>
