<svg width="120" height="120" viewBox="0 0 120 120" fill="none" xmlns="http://www.w3.org/2000/svg">
<g clip-path="url(#clip0_8091_1188)">
<path d="M57.9103 0C51.1783 0 45.7021 5.47805 45.7021 12.2161C45.7021 18.9541 51.1781 24.4322 57.9103 24.4322C64.6422 24.4322 70.1203 18.9541 70.1203 12.2161C70.1203 5.47805 64.6422 0 57.9103 0ZM57.9103 18.514C54.4422 18.514 51.6204 15.6879 51.6204 12.2161C51.6204 8.74406 54.4425 5.9182 57.9103 5.9182C61.3781 5.9182 64.2002 8.7443 64.2002 12.2161C64.2002 15.6879 61.3781 18.514 57.9103 18.514Z" fill="url(#paint0_linear_8091_1188)"/>
<path d="M23.0205 15.186C16.2886 15.186 10.8105 20.6641 10.8105 27.4021C10.8105 34.1402 16.2886 39.6182 23.0205 39.6182C29.7525 39.6182 35.2284 34.1402 35.2284 27.4021C35.2284 20.6638 29.7525 15.186 23.0205 15.186ZM23.0205 33.7C19.5525 33.7 16.7306 30.8739 16.7306 27.4021C16.7306 23.9301 19.5527 21.1042 23.0205 21.1042C26.4884 21.1042 29.3105 23.9303 29.3105 27.4021C29.3105 30.8739 26.4886 33.7 23.0205 33.7Z" fill="url(#paint1_linear_8091_1188)"/>
<path d="M96.9804 27.1958C90.2484 27.1958 84.7725 32.6738 84.7725 39.4119C84.7725 46.1499 90.2484 51.628 96.9804 51.628C103.712 51.628 109.19 46.1499 109.19 39.4119C109.19 32.6738 103.713 27.1958 96.9804 27.1958ZM96.9804 45.7098C93.5123 45.7098 90.6904 42.8837 90.6904 39.4119C90.6904 35.9399 93.5125 33.1138 96.9804 33.1138C100.448 33.1138 103.27 35.9399 103.27 39.4119C103.271 42.8839 100.448 45.7098 96.9804 45.7098Z" fill="url(#paint2_linear_8091_1188)"/>
<path d="M114 72.65H112.216L109.114 55.5721C108.698 53.2841 106.706 51.6261 104.38 51.6261H96.9802H89.5821C87.2562 51.6261 85.2642 53.2862 84.8482 55.5721L81.1481 75.9442C80.8941 77.3521 81.2721 78.7881 82.188 79.8842C83.104 80.9863 84.45 81.6142 85.882 81.6142H87.2201L88.4822 97.5542C88.6842 100.04 90.7901 101.982 93.2782 101.982H78V74.7882H61.6099C64.1039 74.7882 66.21 72.8462 66.4059 70.3602L66.93 63.7623H74.9299C78.244 63.7623 80.9299 61.0742 80.9299 57.7562V51.4602C80.9299 48.1442 78.244 45.4541 74.9299 45.4541H73.1459L70.0439 28.3761C69.6279 26.0881 67.6359 24.4302 65.31 24.4302H57.9101H50.512C48.1861 24.4302 46.1941 26.0903 45.7781 28.3761L42.078 48.7482C41.824 50.1563 42.202 51.5921 43.118 52.6883C44.0339 53.7903 45.3799 54.4182 46.812 54.4182H48.15L49.4121 70.3583C49.6141 72.8443 51.72 74.7864 54.2081 74.7864H42V89.9724H26.7199C29.2078 89.9724 31.3139 88.0304 31.5159 85.5444L32.778 69.6043H34.1161C35.5481 69.6043 36.8941 68.9764 37.8101 67.8744C38.726 66.7785 39.1041 65.3403 38.85 63.9343L35.1499 43.5622C34.7339 41.2742 32.742 39.6163 30.416 39.6163H23.0201H15.6199C13.294 39.6163 11.302 41.2763 10.886 43.5622L7.78406 60.6402H6C2.68594 60.6402 0 63.3282 0 66.6463V72.9442C0 76.2601 2.68594 78.9503 6 78.9503H13.9999L14.524 85.5481C14.7199 88.0342 16.826 89.9762 19.32 89.9762H12V120H108V101.984H100.68C103.174 101.984 105.28 100.042 105.476 97.5561L106 90.9601H114C117.314 90.9601 120 88.272 120 84.954V78.6561C120 75.3402 117.314 72.65 114 72.65ZM15.618 72.9442H6V66.6463H15.618V72.9442ZM15.618 60.6402H13.804L16.5459 45.5342H20.058V55.6923C20.058 57.3282 21.3881 58.6543 23.0201 58.6543C24.652 58.6543 25.9781 57.3282 25.9781 55.6923V45.5342H29.49L32.786 63.6842H27.3101L25.6922 84.0564H20.3421L19.8502 77.1943C20.9402 76.1063 21.6162 74.6042 21.6162 72.9423V66.6444C21.618 63.3301 18.9321 60.6402 15.618 60.6402ZM42 113.994H18V95.9799H42V113.994ZM74.9299 51.4602V57.7581H65.3119V51.4602H74.9299ZM53.618 48.4981H48.142L51.438 30.3481H54.9502V40.5062C54.9502 42.1421 56.2781 43.4682 57.9082 43.4682C59.5383 43.4682 60.8702 42.1421 60.8702 40.5062V30.3481H64.3823L67.1243 45.4541H65.3102C61.9962 45.4541 59.3102 48.1421 59.3102 51.4602V57.7581C59.3102 59.42 59.9862 60.9221 61.0763 62.0101L60.5843 68.8721H55.2342L53.618 48.4981ZM72 113.994H48V80.7941H72V113.994ZM102 107.99V113.996H78V107.99H102ZM98.382 78.6561V84.954C98.382 86.616 99.0579 88.1181 100.148 89.206L99.656 96.0681H94.3059L92.6878 75.696H87.2119L90.5079 57.546H94.02V67.704C94.02 69.3399 95.348 70.666 96.9781 70.666C98.6081 70.666 99.9401 69.3399 99.9401 67.704V57.5462H103.452L106.194 72.6521H104.38C101.068 72.65 98.382 75.3402 98.382 78.6561ZM114 84.954H104.382V78.6561H114V84.954Z" fill="url(#paint3_linear_8091_1188)"/>
</g>
<defs>
<linearGradient id="paint0_linear_8091_1188" x1="46.1061" y1="1.33614" x2="71.0771" y2="2.54349" gradientUnits="userSpaceOnUse">
<stop stop-color="#7EFE92"/>
<stop offset="1" stop-color="#E9FB88"/>
</linearGradient>
<linearGradient id="paint1_linear_8091_1188" x1="11.2145" y1="16.5222" x2="36.1852" y2="17.7295" gradientUnits="userSpaceOnUse">
<stop stop-color="#7EFE92"/>
<stop offset="1" stop-color="#E9FB88"/>
</linearGradient>
<linearGradient id="paint2_linear_8091_1188" x1="85.1764" y1="28.5319" x2="110.147" y2="29.7393" gradientUnits="userSpaceOnUse">
<stop stop-color="#7EFE92"/>
<stop offset="1" stop-color="#E9FB88"/>
</linearGradient>
<linearGradient id="paint3_linear_8091_1188" x1="1.98529" y1="29.6567" x2="124.537" y2="37.101" gradientUnits="userSpaceOnUse">
<stop stop-color="#7EFE92"/>
<stop offset="1" stop-color="#E9FB88"/>
</linearGradient>
<clipPath id="clip0_8091_1188">
<rect width="120" height="120" fill="white"/>
</clipPath>
</defs>
</svg>
