<svg width="121" height="116" viewBox="0 0 121 116" fill="none" xmlns="http://www.w3.org/2000/svg">
<g clip-path="url(#clip0_8091_1172)">
<path d="M120.088 90.1374H0.0878906V0H120.088V90.1374ZM7.11914 82.9539H113.057V7.1834H7.11914V82.9539Z" fill="url(#paint0_linear_8091_1172)"/>
<path d="M43.9299 114.13L38.5908 109.454C43.7471 103.302 43.7471 95.0342 38.5908 88.8828L43.9299 84.2088C51.3197 93.0156 51.3197 105.321 43.9299 114.13ZM76.2455 114.13C68.8557 105.321 68.8557 93.0156 76.2455 84.1992L81.5846 88.8732C76.4283 95.0246 76.4283 103.293 81.5846 109.444L76.2455 114.13Z" fill="url(#paint1_linear_8091_1172)"/>
<path d="M91.8625 108.201H28.3164V115.385H91.8625V108.201Z" fill="url(#paint2_linear_8091_1172)"/>
<path d="M70.6652 61.2841H14.209V14.4268H70.6652V61.2841ZM21.2402 54.1007H63.634V21.6102H21.2402V54.1007Z" fill="url(#paint3_linear_8091_1172)"/>
<path d="M105.984 68.5273H14.1953V75.7107H105.984V68.5273Z" fill="url(#paint4_linear_8091_1172)"/>
<path d="M43.042 59.6847L31.8459 42.5259L20.6498 59.6847L14.7998 55.7003L31.8459 29.5767L48.892 55.7003L43.042 59.6847Z" fill="url(#paint5_linear_8091_1172)"/>
<path d="M64.3746 59.9L49.9137 40.931L43.1637 50.983L37.3652 46.9195L49.5527 28.7671L69.9223 55.4846L64.3746 59.9Z" fill="url(#paint6_linear_8091_1172)"/>
<path d="M105.966 46.8569H77.7539V14.4263H105.966V46.8569ZM84.7852 39.6735H98.9344V21.6097H84.7852V39.6735Z" fill="url(#paint7_linear_8091_1172)"/>
<path d="M105.98 54.1006H77.7383V61.284H105.98V54.1006Z" fill="url(#paint8_linear_8091_1172)"/>
</g>
<defs>
<linearGradient id="paint0_linear_8091_1172" x1="2.07318" y1="4.92939" x2="124.569" y2="12.8188" gradientUnits="userSpaceOnUse">
<stop stop-color="#7EFE92"/>
<stop offset="1" stop-color="#E9FB88"/>
</linearGradient>
<linearGradient id="paint1_linear_8091_1172" x1="39.3021" y1="85.8361" x2="83.1602" y2="88.8839" gradientUnits="userSpaceOnUse">
<stop stop-color="#7EFE92"/>
<stop offset="1" stop-color="#E9FB88"/>
</linearGradient>
<linearGradient id="paint2_linear_8091_1172" x1="29.3677" y1="108.594" x2="84.4212" y2="132.155" gradientUnits="userSpaceOnUse">
<stop stop-color="#7EFE92"/>
<stop offset="1" stop-color="#E9FB88"/>
</linearGradient>
<linearGradient id="paint3_linear_8091_1172" x1="15.143" y1="16.9893" x2="72.8165" y2="20.351" gradientUnits="userSpaceOnUse">
<stop stop-color="#7EFE92"/>
<stop offset="1" stop-color="#E9FB88"/>
</linearGradient>
<linearGradient id="paint4_linear_8091_1172" x1="15.7139" y1="68.9202" x2="83.7868" y2="111.001" gradientUnits="userSpaceOnUse">
<stop stop-color="#7EFE92"/>
<stop offset="1" stop-color="#E9FB88"/>
</linearGradient>
<linearGradient id="paint5_linear_8091_1172" x1="15.3638" y1="31.2232" x2="50.2048" y2="33.1318" gradientUnits="userSpaceOnUse">
<stop stop-color="#7EFE92"/>
<stop offset="1" stop-color="#E9FB88"/>
</linearGradient>
<linearGradient id="paint6_linear_8091_1172" x1="37.9039" y1="30.4697" x2="71.1906" y2="32.1537" gradientUnits="userSpaceOnUse">
<stop stop-color="#7EFE92"/>
<stop offset="1" stop-color="#E9FB88"/>
</linearGradient>
<linearGradient id="paint7_linear_8091_1172" x1="78.2206" y1="16.1998" x2="107.087" y2="17.4147" gradientUnits="userSpaceOnUse">
<stop stop-color="#7EFE92"/>
<stop offset="1" stop-color="#E9FB88"/>
</linearGradient>
<linearGradient id="paint8_linear_8091_1172" x1="78.2055" y1="54.4934" x2="106.144" y2="59.8074" gradientUnits="userSpaceOnUse">
<stop stop-color="#7EFE92"/>
<stop offset="1" stop-color="#E9FB88"/>
</linearGradient>
<clipPath id="clip0_8091_1172">
<rect width="120" height="115.385" fill="white" transform="translate(0.0878906)"/>
</clipPath>
</defs>
</svg>
