<svg width="124" height="115" viewBox="0 0 124 115" fill="none" xmlns="http://www.w3.org/2000/svg">
<path d="M79.928 3.49278L73.883 21.8753H50.2197L44.123 3.44528C44.8481 3.06899 45.6671 2.87255 46.4997 2.87528H77.4997C78.3563 2.86618 79.1983 3.08027 79.928 3.49278Z" fill="#DFF9FF" stroke="#00303E" stroke-linecap="round" stroke-linejoin="round"/>
<path d="M50.2202 21.8753H29.9152C29.8743 20.7835 30.2387 19.7114 30.9485 18.8353L42.3669 4.77531C42.8259 4.20709 43.4289 3.75053 44.1235 3.44531L50.2202 21.8753Z" fill="#DFF9FF" stroke="#00303E" stroke-linecap="round" stroke-linejoin="round"/>
<path d="M94.1371 21.8747H73.8838L79.9288 3.49219C80.6054 3.78098 81.1919 4.2221 81.6338 4.77469L93.1038 18.8347C93.8136 19.7108 94.178 20.7829 94.1371 21.8747Z" fill="#DFF9FF" stroke="#00303E" stroke-linecap="round" stroke-linejoin="round"/>
<path d="M94.085 21.875C94.0749 22.9398 93.6537 23.9666 92.8967 24.7725L65.9267 53.3675C65.1848 54.1451 64.187 54.6788 63.085 54.8875C62.7263 54.9427 62.3637 54.9744 62 54.9825C61.7235 54.9919 61.4465 54.976 61.1734 54.935V54.8875C59.9845 54.7541 58.895 54.2109 58.125 53.3675L31.155 24.7725C30.4045 23.9593 29.9684 22.9403 29.915 21.875H94.085Z" fill="#E9FB88" stroke="#00303E" stroke-linecap="round" stroke-linejoin="round"/>
<path d="M79.9287 3.49281V3.44531" stroke="#00303E" stroke-linecap="round" stroke-linejoin="round"/>
<path d="M100.75 97.8748V90.6025C100.75 90.6025 114.209 78.3523 119.897 73.1463C120.379 72.7045 120.762 72.1796 121.022 71.6017C121.283 71.0238 121.417 70.4042 121.416 69.7785V33.4553C121.416 33.4553 108.5 29.147 108.5 62.2498L93.1598 76.3525L96.7145 62.1025C98.4867 55.272 91.6977 52.3555 87.9932 57.647C84.7416 63.6852 82.094 69.9827 80.083 76.4618V97.8748" fill="#DFF9FF"/>
<path d="M100.75 97.8748V90.6025C100.75 90.6025 114.209 78.3523 119.897 73.1463C120.379 72.7045 120.762 72.1796 121.022 71.6017C121.283 71.0238 121.417 70.4042 121.416 69.7785V33.4553C121.416 33.4553 108.5 29.147 108.5 62.2498L93.1598 76.3525L96.7145 62.1025C98.4867 55.272 91.6977 52.3555 87.9932 57.647C84.7416 63.6852 82.094 69.9827 80.083 76.4618V97.8748" stroke="#00303E" stroke-linecap="round" stroke-linejoin="round"/>
<path d="M23.2497 97.8748V90.6025C23.2497 90.6025 10.5345 78.2905 4.30351 73.1035C3.76481 72.6602 3.33333 72.1178 3.03697 71.5115C2.7406 70.9052 2.58595 70.2485 2.58301 69.5838V33.4553C2.58301 33.4553 15.4997 29.147 15.4997 62.2498L30.8395 76.3525L27.2848 62.1025C25.5075 55.272 32.3017 52.3555 36.0062 57.647C39.2555 63.6861 41.903 69.9834 43.9163 76.4618V97.8748" fill="#DFF9FF"/>
<path d="M23.2497 97.8748V90.6025C23.2497 90.6025 10.5345 78.2905 4.30351 73.1035C3.76481 72.6602 3.33333 72.1178 3.03697 71.5115C2.7406 70.9052 2.58595 70.2485 2.58301 69.5838V33.4553C2.58301 33.4553 15.4997 29.147 15.4997 62.2498L30.8395 76.3525L27.2848 62.1025C25.5075 55.272 32.3017 52.3555 36.0062 57.647C39.2555 63.6861 41.903 69.9834 43.9163 76.4618V97.8748" stroke="#00303E" stroke-linecap="round" stroke-linejoin="round"/>
<path d="M61.1731 54.935V54.8875L50.2197 21.875" stroke="#00303E" stroke-linecap="round" stroke-linejoin="round"/>
<path d="M73.8833 21.875L63.085 54.8875" stroke="#00303E" stroke-linecap="round" stroke-linejoin="round"/>
<path d="M74.917 100.25C74.917 99.6201 75.1892 99.016 75.6736 98.5706C76.1581 98.1252 76.8152 97.875 77.5003 97.875H103.334C104.019 97.875 104.676 98.1252 105.16 98.5706C105.645 99.016 105.917 99.6201 105.917 100.25V109.75C105.917 110.38 105.645 110.984 105.16 111.429C104.676 111.875 104.019 112.125 103.334 112.125H77.5003C76.8152 112.125 76.1581 111.875 75.6736 111.429C75.1892 110.984 74.917 110.38 74.917 109.75V100.25Z" fill="#92E3A9" stroke="#00303E" stroke-linecap="round" stroke-linejoin="round"/>
<path d="M18.083 100.25C18.083 99.6201 18.3552 99.016 18.8396 98.5706C19.3241 98.1252 19.9812 97.875 20.6663 97.875H46.4997C47.1848 97.875 47.8419 98.1252 48.3264 98.5706C48.8108 99.016 49.083 99.6201 49.083 100.25V109.75C49.083 110.38 48.8108 110.984 48.3264 111.429C47.8419 111.875 47.1848 112.125 46.4997 112.125H20.6663C19.9812 112.125 19.3241 111.875 18.8396 111.429C18.3552 110.984 18.083 110.38 18.083 109.75V100.25Z" fill="#92E3A9" stroke="#00303E" stroke-linecap="round" stroke-linejoin="round"/>
</svg>
