<svg width="124" height="115" viewBox="0 0 124 115" fill="none" xmlns="http://www.w3.org/2000/svg">
<path d="M77.5 82.3848V95.2858C77.5 102.059 71.3 104.786 62 104.786C52.7 104.786 46.5 102.059 46.5 95.2858V82.3848" fill="#DFF9FF"/>
<path d="M77.5 82.3848V95.2858C77.5 102.059 71.3 104.786 62 104.786C52.7 104.786 46.5 102.059 46.5 95.2858V82.3848" stroke="#00303E" stroke-linecap="round" stroke-linejoin="round"/>
<path d="M74.9167 83.4111C81.1047 81.1558 86.3979 77.2197 90.0903 72.1277C93.7827 67.0358 95.6989 61.03 95.5833 54.9111C95.4242 46.7683 91.8349 38.9999 85.5709 33.2411C79.307 27.4823 70.8571 24.1824 62 24.0361C53.1425 24.1813 44.6919 27.4808 38.4277 33.2398C32.1635 38.9988 28.5745 46.7679 28.4167 54.9111C28.2997 61.0303 30.2153 67.0367 33.9079 72.1289C37.6005 77.2211 42.8944 81.1569 49.0833 83.4111H74.9167Z" fill="#E9FB88"/>
<path d="M61.9998 39.6399C69.4524 39.7657 76.6559 42.1281 82.5127 46.3669C88.3695 50.6057 92.5585 56.4886 94.4413 63.1191C95.2315 60.4446 95.6157 57.6824 95.5831 54.9111C95.4252 46.7679 91.8363 38.9988 85.5721 33.2398C79.3079 27.4808 70.8573 24.1813 61.9998 24.0361C53.1427 24.1824 44.6928 27.4823 38.4288 33.2411C32.1649 38.9999 28.5756 46.7683 28.4164 54.9111C28.3841 57.684 28.7684 60.4477 29.5583 63.1239C31.4401 56.4925 35.6286 50.6085 41.4855 46.3688C47.3424 42.129 54.5465 39.766 61.9998 39.6399Z" fill="#DFF9FF"/>
<path d="M74.9167 83.4111C81.1047 81.1558 86.3979 77.2197 90.0903 72.1277C93.7827 67.0358 95.6989 61.03 95.5833 54.9111C95.4242 46.7683 91.8349 38.9999 85.5709 33.2411C79.307 27.4823 70.8571 24.1824 62 24.0361C53.1425 24.1813 44.6919 27.4808 38.4277 33.2398C32.1635 38.9988 28.5745 46.7679 28.4167 54.9111C28.2997 61.0303 30.2153 67.0367 33.9079 72.1289C37.6005 77.2211 42.8944 81.1569 49.0833 83.4111H74.9167Z" stroke="#00303E" stroke-linecap="round" stroke-linejoin="round"/>
<path d="M67.1667 83.4109V54.9109C67.1667 53.9714 67.4697 53.0531 68.0374 52.2719C68.6051 51.4908 69.412 50.882 70.3561 50.5225C71.3002 50.163 72.3391 50.0689 73.3413 50.2522C74.3435 50.4355 75.2641 50.8878 75.9867 51.5521C76.7093 52.2164 77.2014 53.0628 77.4007 53.9842C77.6001 54.9056 77.4978 55.8607 77.1067 56.7287C76.7157 57.5966 76.0534 58.3384 75.2038 58.8604C74.3541 59.3823 73.3552 59.6609 72.3333 59.6609H51.6667C50.2964 59.6609 48.9822 59.1605 48.0133 58.2697C47.0443 57.3789 46.5 56.1707 46.5 54.9109C46.5 53.6511 47.0443 52.4429 48.0133 51.5521C48.9822 50.6614 50.2964 50.1609 51.6667 50.1609C52.355 50.1266 53.0434 50.226 53.6871 50.4526C54.3309 50.6792 54.9155 51.0279 55.4029 51.476C55.8903 51.9241 56.2696 52.4615 56.5161 53.0534C56.7625 53.6452 56.8706 54.2781 56.8333 54.9109V83.4109" stroke="#00303E" stroke-linecap="round" stroke-linejoin="round"/>
<path d="M46.5 92.9111H77.5" stroke="#999999" stroke-linecap="round" stroke-linejoin="round"/>
<path d="M62 3.08887V12.1614" stroke="#E9FB88" stroke-linecap="round" stroke-linejoin="round"/>
<path d="M62 104.786V111.911" stroke="#999999" stroke-linecap="round" stroke-linejoin="round"/>
<path d="M5.1665 50.1611H17.0033" stroke="#E9FB88" stroke-linecap="round" stroke-linejoin="round"/>
<path d="M18.5532 14.9639L28.4164 24.0364" stroke="#E9FB88" stroke-linecap="round" stroke-linejoin="round"/>
<path d="M118.833 50.1611H106.996" stroke="#E9FB88" stroke-linecap="round" stroke-linejoin="round"/>
<path d="M105.447 14.9639L95.5835 24.0364" stroke="#E9FB88" stroke-linecap="round" stroke-linejoin="round"/>
</svg>
