<svg width="124" height="115" viewBox="0 0 124 115" fill="none" xmlns="http://www.w3.org/2000/svg">
<path d="M28.4165 55.125C28.4165 63.3136 31.9547 71.1667 38.2528 76.9569C44.5509 82.7471 53.093 86 61.9998 86C70.9067 86 79.4487 82.7471 85.7468 76.9569C92.0449 71.1667 95.5832 63.3136 95.5832 55.125C95.5832 46.9364 92.0449 39.0833 85.7468 33.2931C79.4487 27.5029 70.9067 24.25 61.9998 24.25C53.093 24.25 44.5509 27.5029 38.2528 33.2931C31.9547 39.0833 28.4165 46.9364 28.4165 55.125Z" fill="#DFF9FF"/>
<path d="M62 24.25C64.2992 24.25 66.5468 23.6232 68.4585 22.4488C70.3702 21.2745 71.8602 19.6053 72.7401 17.6524C73.62 15.6995 73.8502 13.5506 73.4016 11.4775C72.9531 9.40431 71.8459 7.49997 70.2201 6.0053C68.5943 4.51063 66.523 3.49274 64.2679 3.08036C62.0129 2.66798 59.6755 2.87963 57.5513 3.68854C55.4271 4.49745 53.6115 5.8673 52.3342 7.62485C51.0568 9.3824 50.375 11.4487 50.375 13.5625C50.375 16.397 51.5998 19.1154 53.7799 21.1197C55.96 23.124 58.9169 24.25 62 24.25Z" fill="#DFF9FF" stroke="#00303E" stroke-linecap="round" stroke-linejoin="round"/>
<path d="M85.25 45.625C83.9326 40.8753 80.9319 36.6642 76.7217 33.6567C72.5115 30.6492 67.3317 29.0166 62 29.0166C56.6683 29.0166 51.4885 30.6492 47.2783 33.6567C43.0681 36.6642 40.0674 40.8753 38.75 45.625H85.25Z" fill="#E9FB88" stroke="#00303E" stroke-linecap="round" stroke-linejoin="round"/>
<path d="M25.8335 90.75C28.1327 90.75 30.3803 90.1232 32.292 88.9488C34.2037 87.7745 35.6937 86.1053 36.5736 84.1524C37.4535 82.1996 37.6837 80.0506 37.2351 77.9775C36.7866 75.9043 35.6794 74 34.0536 72.5053C32.4278 71.0106 30.3565 69.9927 28.1014 69.5804C25.8464 69.168 23.509 69.3796 21.3848 70.1885C19.2606 70.9975 17.445 72.3673 16.1677 74.1248C14.8903 75.8824 14.2085 77.9487 14.2085 80.0625C14.2085 81.466 14.5092 82.8558 15.0934 84.1524C15.6776 85.4491 16.5339 86.6273 17.6134 87.6197C18.6929 88.6121 19.9744 89.3994 21.3848 89.9365C22.7952 90.4736 24.3069 90.75 25.8335 90.75Z" fill="#DFF9FF" stroke="#00303E" stroke-linecap="round" stroke-linejoin="round"/>
<path d="M49.0835 112.125C47.7661 107.375 44.7654 103.164 40.5552 100.157C36.345 97.1492 31.1652 95.5166 25.8335 95.5166C20.5018 95.5166 15.3219 97.1492 11.1118 100.157C6.90159 103.164 3.90091 107.375 2.5835 112.125H49.0835Z" fill="#92E3A9" stroke="#00303E" stroke-linecap="round" stroke-linejoin="round"/>
<path d="M98.1665 90.75C100.466 90.75 102.713 90.1232 104.625 88.9488C106.537 87.7745 108.027 86.1053 108.907 84.1524C109.786 82.1996 110.017 80.0506 109.568 77.9775C109.12 75.9043 108.012 74 106.387 72.5053C104.761 71.0106 102.689 69.9927 100.434 69.5804C98.1794 69.168 95.842 69.3796 93.7178 70.1885C91.5936 70.9975 89.778 72.3673 88.5007 74.1248C87.2233 75.8824 86.5415 77.9487 86.5415 80.0625C86.5415 81.466 86.8422 82.8558 87.4264 84.1524C88.0106 85.4491 88.8669 86.6273 89.9464 87.6197C91.0259 88.6121 92.3074 89.3994 93.7178 89.9365C95.1282 90.4736 96.6399 90.75 98.1665 90.75Z" fill="#DFF9FF" stroke="#00303E" stroke-linecap="round" stroke-linejoin="round"/>
<path d="M121.417 112.125C120.099 107.375 117.098 103.164 112.888 100.157C108.678 97.1492 103.498 95.5166 98.1665 95.5166C92.8348 95.5166 87.655 97.1492 83.4448 100.157C79.2346 103.164 76.2339 107.375 74.9165 112.125H121.417Z" fill="#92E3A9" stroke="#00303E" stroke-linecap="round" stroke-linejoin="round"/>
<path d="M77.5 90.3604C67.5556 94.0463 56.4444 94.0463 46.5 90.3604" stroke="#E9FB88" stroke-linecap="round" stroke-linejoin="round"/>
<path d="M85.25 23.709C91.5433 27.6515 96.5315 33.1139 99.6655 39.495C102.799 45.876 103.958 52.9282 103.013 59.8755" stroke="#E9FB88" stroke-linecap="round" stroke-linejoin="round"/>
<path d="M38.7498 23.709C32.4565 27.6515 27.4683 33.1139 24.3343 39.495C21.2003 45.876 20.042 52.9282 20.9868 59.8755" stroke="#E9FB88" stroke-linecap="round" stroke-linejoin="round"/>
</svg>
