<svg width="12" height="12" viewBox="0 0 12 12" fill="none" xmlns="http://www.w3.org/2000/svg">
<path d="M6.27131 0.0207124C5.42275 0.100303 4.63837 0.364824 3.94194 0.809594C3.72089 0.950048 3.3596 1.21925 3.33107 1.26607C3.32157 1.28246 3.23125 1.3597 3.13379 1.4393C2.86283 1.65466 2.85807 1.68041 3.12191 1.50718C3.5854 1.20286 4.11546 0.985162 4.67641 0.868117C4.94975 0.809595 5.02343 0.804913 5.52258 0.802572C6.00747 0.802572 6.10017 0.809595 6.34262 0.858753C8.06825 1.20755 9.42309 2.45993 9.91749 4.1641C10.034 4.56907 10.0221 4.5761 9.81291 4.20858C9.46112 3.59994 9.36367 3.44544 9.22105 3.25349C8.10391 1.76936 6.21664 0.996866 4.37216 1.27075C2.63226 1.52825 1.14194 2.64018 0.436001 4.21092C0.16741 4.81019 0.027173 5.40946 0.00340395 6.08129C-0.0607726 7.85101 0.785406 9.46857 2.29712 10.4658C2.69406 10.7303 3.38099 11.0229 4.01325 11.2008C4.03226 11.2055 3.92055 11.1447 3.76367 11.0627C3.43091 10.8895 3.3287 10.8263 3.08626 10.646C2.41121 10.1381 1.88591 9.41473 1.61495 8.61648C1.09916 7.09022 1.45332 5.41882 2.56096 4.15474C2.68218 4.01662 2.79152 3.89724 2.80578 3.89021C2.83905 3.86915 2.83668 3.87149 2.62751 4.18517C2.26622 4.72357 1.98337 5.4118 1.85977 6.05554C1.7742 6.49563 1.75519 7.13236 1.81461 7.57947C2.04992 9.40771 3.28116 10.9831 4.98778 11.6386C5.58676 11.868 6.10255 11.9757 6.71104 11.9967C8.50085 12.0599 10.1932 11.2008 11.1701 9.73309C11.5837 9.11275 11.8594 8.38474 11.964 7.63799C12.0258 7.1979 12.0068 6.51202 11.9165 5.99936L11.8452 5.60141L11.8309 6.05788C11.8166 6.4769 11.7857 6.72972 11.7144 6.99892C11.2699 8.69842 9.87946 9.93441 8.06588 10.2387C7.71647 10.2972 7.09847 10.309 6.73005 10.2621C6.42106 10.2223 5.97182 10.1287 5.89338 10.0866C5.86962 10.0725 6.11206 10.0655 6.53277 10.0678C7.26486 10.0725 7.40747 10.0608 7.89949 9.94377C8.88116 9.71202 9.6798 9.26257 10.3834 8.5486C10.7969 8.12958 11.0584 7.75972 11.3246 7.21663C11.5124 6.83506 11.6526 6.42306 11.7287 6.01341C11.762 5.83784 11.7976 5.66227 11.8095 5.62482C11.8452 5.51246 11.8214 4.57844 11.7762 4.31392C11.5576 2.97258 10.8896 1.85129 9.83192 1.04837C8.83362 0.287574 7.5073 -0.0963324 6.27131 0.0207124ZM8.11579 0.582527C9.3708 1.00389 10.4095 1.89811 10.98 3.04983C11.6384 4.37946 11.6336 5.91275 10.9657 7.24004C10.564 8.04062 9.98166 8.69373 9.21868 9.19234C9.01426 9.32812 8.71477 9.499 8.68387 9.499C8.67437 9.499 8.79321 9.41473 8.94771 9.31407C10.3548 8.3941 11.1772 6.77654 11.1131 5.063C11.0822 4.28583 10.9277 3.67485 10.5854 2.97961C10.3216 2.44354 10.0696 2.09241 9.65127 1.67104C9.17352 1.19116 8.63634 0.830662 8.04211 0.591891C7.84007 0.50996 7.79253 0.486551 7.82105 0.486551C7.82819 0.486551 7.96129 0.528687 8.11579 0.582527ZM6.73956 0.594232C6.73243 0.601255 6.71104 0.603595 6.6944 0.596572C6.67538 0.589549 6.68252 0.582527 6.70866 0.582527C6.73481 0.580186 6.74907 0.587209 6.73956 0.594232ZM7.05569 0.650414C8.79559 1.05773 10.1718 2.37799 10.6211 4.07046C10.7494 4.55737 10.7732 4.75869 10.7732 5.3205C10.7732 5.86593 10.7518 6.03213 10.6306 6.51436C10.293 7.83228 9.32564 9.00039 8.08965 9.57859C7.79491 9.7167 7.71647 9.73543 7.94703 9.60902C8.83599 9.13148 9.48489 8.45964 9.92224 7.56776C10.2598 6.87486 10.4119 6.21004 10.4095 5.41414C10.4095 4.23901 10.0577 3.21135 9.3399 2.27734C9.16163 2.04559 8.69814 1.59379 8.45331 1.40886C7.96605 1.04837 7.34092 0.748731 6.80612 0.619982L6.75858 0.608277L6.80612 0.605936C6.83226 0.605936 6.94398 0.624664 7.05569 0.650414ZM5.727 1.53995C6.08354 1.57741 6.52564 1.6687 6.85365 1.77638C7.13413 1.86768 7.84245 2.19775 7.95891 2.28904C7.99219 2.31479 7.88523 2.27266 7.72123 2.19775C6.96537 1.84427 6.29983 1.7085 5.44177 1.73425C4.83803 1.75298 4.34126 1.85129 3.78269 2.06666C2.73209 2.47163 1.81461 3.23008 1.22989 4.17814C0.849582 4.79614 0.592877 5.54757 0.519193 6.26622C0.478785 6.66184 0.488293 6.95211 0.554846 7.49754C0.564354 7.58415 0.564354 7.58649 0.542962 7.52094C0.416985 7.14406 0.362317 6.26154 0.433624 5.71377C0.671315 3.87149 1.90255 2.37097 3.65909 1.77638C4.31749 1.55634 5.04007 1.47207 5.727 1.53995ZM6.35926 2.04325C7.08897 2.13688 7.77827 2.39204 8.36537 2.78063C8.70289 3.00301 8.83837 3.12474 8.5365 2.93279C8.08014 2.64252 7.57148 2.4412 7.00815 2.32415C6.64449 2.24925 5.94805 2.21881 5.56775 2.26329C4.12972 2.42949 2.8343 3.18092 1.96435 4.34903C1.10629 5.50309 0.809177 6.99424 1.17284 8.32855C1.23227 8.55328 1.18948 8.48071 1.10391 8.21619C0.245849 5.54523 1.90493 2.72913 4.70255 2.11347C5.18744 2.00579 5.85297 1.98004 6.35926 2.04325ZM6.64686 2.52313C7.98506 2.66358 9.13073 3.32606 9.86282 4.37712C10.0506 4.64866 10.072 4.73294 10.091 5.3205C10.1005 5.66461 10.0958 5.8355 10.0649 6.07427C9.90798 7.28217 9.29949 8.36367 8.36061 9.11041C7.76876 9.57859 6.99627 9.90164 6.23328 10.0023C5.76027 10.0655 5.69135 10.0538 5.19933 9.82205C3.9158 9.22044 2.96266 8.09212 2.62513 6.77186C2.5158 6.34581 2.4849 6.04384 2.49916 5.578C2.51817 4.94128 2.62751 4.46139 2.87233 3.93937C2.96979 3.72869 3.06249 3.63506 3.42615 3.38224C4.36503 2.72679 5.55348 2.40843 6.64686 2.52313ZM2.34228 5.26666C2.33515 5.28539 2.32802 5.27837 2.32802 5.25262C2.32564 5.22687 2.33277 5.21282 2.3399 5.22218C2.34703 5.22921 2.34941 5.25027 2.34228 5.26666ZM2.30663 5.7957C2.29474 6.33177 2.32802 6.61268 2.454 7.06915C2.95315 8.86228 4.54568 10.234 6.52802 10.5805C6.92734 10.6484 7.76401 10.6554 8.13718 10.5922C9.09032 10.4283 9.94363 10.0304 10.545 9.46623C10.6258 9.39132 10.6924 9.33748 10.6924 9.35153C10.6924 9.3843 10.2098 9.84311 10.0387 9.96952C9.34941 10.4869 8.51987 10.8193 7.64992 10.9269C7.35994 10.9621 6.76809 10.955 6.45671 10.9152C5.37997 10.7748 4.39118 10.2926 3.62819 9.52943C3.21699 9.12212 2.96979 8.77801 2.71546 8.27003C2.36605 7.5701 2.21155 6.85847 2.2377 6.06959C2.24721 5.77229 2.28999 5.33221 2.31138 5.33221C2.31376 5.33221 2.31138 5.54055 2.30663 5.7957ZM2.03328 6.1445C2.02615 6.16791 2.0214 6.15386 2.0214 6.11641C2.0214 6.07661 2.02615 6.06023 2.03328 6.07427C2.03804 6.09066 2.03804 6.12343 2.03328 6.1445ZM2.04041 6.78824C2.15688 8.23726 2.94126 9.55986 4.19152 10.4166C4.73583 10.7888 5.45128 11.0885 6.10968 11.2172C6.55654 11.3062 6.87505 11.3319 7.31715 11.3179C8.29881 11.2828 9.14975 11.0112 9.9674 10.4681C10.2217 10.2972 10.2265 10.2972 10.0981 10.412C9.927 10.5665 9.60611 10.7912 9.33277 10.9457C8.75756 11.2757 8.08014 11.5005 7.41223 11.5801C7.12224 11.6175 6.53039 11.6105 6.21664 11.5707C4.37691 11.3343 2.84143 10.0678 2.25434 8.30983C2.05705 7.71758 1.9905 7.2892 1.99763 6.65481C2.00001 6.43477 2.00476 6.30368 2.00951 6.3622C2.01189 6.42072 2.02615 6.61268 2.04041 6.78824Z" fill="url(#paint0_linear_3168_7349)"/>
<defs>
<linearGradient id="paint0_linear_3168_7349" x1="6.12846" y1="5.39999" x2="12.1081" y2="8.52059" gradientUnits="userSpaceOnUse">
<stop stop-color="#4DC760"/>
<stop offset="1" stop-color="#FFF854"/>
</linearGradient>
</defs>
</svg>
