<svg width="16" height="16" viewBox="0 0 16 16" fill="none" xmlns="http://www.w3.org/2000/svg">
<path d="M8.36175 0.0276166C7.23034 0.133737 6.1845 0.486432 5.25592 1.07946C4.96118 1.26673 4.47946 1.62567 4.44143 1.68809C4.42876 1.70994 4.30833 1.81294 4.17839 1.91906C3.8171 2.20621 3.81076 2.24054 4.16254 2.00957C4.78054 1.60382 5.48728 1.31355 6.23521 1.15749C6.59967 1.07946 6.69791 1.07322 7.36345 1.0701C8.00996 1.0701 8.13356 1.07946 8.45682 1.145C10.7577 1.61006 12.5641 3.2799 13.2233 5.55213C13.3786 6.0921 13.3628 6.10146 13.0839 5.61144C12.6148 4.79992 12.4849 4.59392 12.2947 4.33799C10.8052 2.35915 8.28885 1.32915 5.82955 1.69433C3.50968 2.03767 1.52259 3.52023 0.581334 5.61456C0.223213 6.41358 0.0362307 7.21261 0.0045386 8.10839C-0.0810301 10.468 1.04721 12.6248 3.06283 13.9544C3.59208 14.3071 4.50799 14.6972 5.351 14.9344C5.37635 14.9407 5.2274 14.8595 5.01823 14.7503C4.57454 14.5193 4.43827 14.4351 4.11501 14.1947C3.21495 13.5174 2.51455 12.553 2.15326 11.4886C1.46554 9.45363 1.93776 7.22509 3.41461 5.53965C3.57624 5.3555 3.72202 5.19632 3.74104 5.18695C3.78541 5.15886 3.78224 5.16198 3.50335 5.58022C3.02163 6.2981 2.64449 7.21573 2.47969 8.07406C2.3656 8.66084 2.34025 9.50981 2.41948 10.106C2.73323 12.5436 4.37488 14.6442 6.65038 15.5181C7.44902 15.824 8.13674 15.9676 8.94805 15.9957C11.3345 16.0799 13.5909 14.9344 14.8935 12.9775C15.4449 12.1503 15.8126 11.1796 15.952 10.184C16.0344 9.5972 16.0091 8.68269 15.8886 7.99915L15.7935 7.46855L15.7745 8.07718C15.7555 8.63587 15.7143 8.97296 15.6192 9.3319C15.0266 11.5979 13.1726 13.2459 10.7545 13.6516C10.2886 13.7297 9.46463 13.7453 8.97341 13.6828C8.56141 13.6298 7.96243 13.5049 7.85785 13.4488C7.82615 13.43 8.14941 13.4207 8.71036 13.4238C9.68648 13.43 9.87663 13.4144 10.5327 13.2584C11.8415 12.9494 12.9064 12.3501 13.8445 11.3981C14.3959 10.8394 14.7445 10.3463 15.0995 9.62217C15.3499 9.11341 15.5368 8.56408 15.6383 8.01788C15.6826 7.78379 15.7302 7.5497 15.746 7.49976C15.7936 7.34994 15.7619 6.10458 15.7016 5.75189C15.4101 3.96344 14.5195 2.46839 13.1092 1.39782C11.7782 0.383433 10.0097 -0.128443 8.36175 0.0276166ZM10.8211 0.776703C12.4944 1.33852 13.8793 2.53081 14.64 4.06644C15.5178 5.83928 15.5115 7.88366 14.6209 9.65338C14.0853 10.7208 13.3089 11.5916 12.2916 12.2565C12.019 12.4375 11.6197 12.6653 11.5785 12.6653C11.5658 12.6653 11.7243 12.553 11.9303 12.4188C13.8065 11.1921 14.903 9.03539 14.8174 6.75067C14.7762 5.71443 14.5702 4.8998 14.1139 3.97281C13.7621 3.25805 13.4261 2.78987 12.8684 2.22806C12.2314 1.58821 11.5151 1.10755 10.7228 0.789188C10.4534 0.679946 10.39 0.648735 10.4281 0.648735C10.4376 0.648735 10.6151 0.704915 10.8211 0.776703ZM8.98608 0.792309C8.97657 0.801673 8.94805 0.804793 8.92587 0.795429C8.90051 0.786066 8.91002 0.776703 8.94488 0.776703C8.97974 0.773582 8.99876 0.782946 8.98608 0.792309ZM9.40759 0.867218C11.7275 1.41031 13.5624 3.17066 14.1614 5.42728C14.3325 6.07649 14.3642 6.34491 14.3642 7.094C14.3642 7.82124 14.3357 8.04285 14.1741 8.68581C13.7241 10.443 12.4342 12.0005 10.7862 12.7715C10.3932 12.9556 10.2886 12.9806 10.596 12.812C11.7813 12.1753 12.6465 11.2795 13.2297 10.0903C13.6797 9.16648 13.8825 8.28006 13.8793 7.21885C13.8793 5.65201 13.4103 4.28181 12.4532 3.03645C12.2155 2.72745 11.5975 2.12506 11.2711 1.87848C10.6214 1.39782 9.78789 0.998308 9.07482 0.826642L9.01144 0.811036L9.07482 0.807914C9.10968 0.807914 9.25864 0.832885 9.40759 0.867218ZM7.636 2.05327C8.11138 2.10321 8.70085 2.22494 9.1382 2.36851C9.51217 2.49024 10.4566 2.93033 10.6119 3.05206C10.6563 3.08639 10.5136 3.03021 10.295 2.93033C9.28716 2.45903 8.39978 2.278 7.25569 2.31233C6.45071 2.3373 5.78835 2.46839 5.04358 2.75554C3.64279 3.29551 2.41948 4.30677 1.63985 5.57086C1.13278 6.39485 0.790503 7.39676 0.692257 8.35497C0.63838 8.88245 0.651057 9.26948 0.739795 9.99671C0.752472 10.1122 0.752472 10.1153 0.723949 10.0279C0.555981 9.52541 0.483089 8.34872 0.578166 7.61836C0.895087 5.16198 2.53674 3.1613 4.87879 2.36851C5.75666 2.07512 6.7201 1.96276 7.636 2.05327ZM8.47901 2.72433C9.45196 2.84918 10.371 3.18939 11.1538 3.70751C11.6039 4.00402 11.7845 4.16632 11.382 3.91038C10.7735 3.52336 10.0953 3.25493 9.34421 3.09887C8.85932 2.99899 7.93074 2.95842 7.42366 3.01772C5.50629 3.23933 3.77907 4.24123 2.61914 5.79871C1.47505 7.33746 1.0789 9.32566 1.56379 11.1047C1.64302 11.4044 1.58598 11.3076 1.47188 10.9549C0.327798 7.39364 2.53991 3.63884 6.27007 2.81796C6.91659 2.67439 7.80397 2.64006 8.47901 2.72433ZM8.86248 3.36417C10.6467 3.55145 12.1743 4.43474 13.1504 5.83616C13.4008 6.19822 13.4293 6.31058 13.4547 7.094C13.4673 7.55282 13.461 7.78067 13.4198 8.09903C13.2106 9.70956 12.3993 11.1516 11.1475 12.1472C10.3584 12.7715 9.32836 13.2022 8.31104 13.3364C7.68037 13.4207 7.58846 13.4051 6.93243 13.0961C5.22106 12.2939 3.95021 10.7895 3.50018 9.02914C3.3544 8.46109 3.3132 8.05845 3.33221 7.43733C3.35756 6.58837 3.50335 5.94852 3.82978 5.2525C3.95972 4.97159 4.08331 4.84674 4.5682 4.50965C5.82004 3.63572 7.40465 3.21124 8.86248 3.36417ZM3.12304 7.02221C3.11353 7.04718 3.10403 7.03782 3.10403 7.00349C3.10086 6.96915 3.11036 6.95043 3.11987 6.96291C3.12938 6.97228 3.13255 7.00037 3.12304 7.02221ZM3.0755 7.7276C3.05966 8.44236 3.10403 8.8169 3.27199 9.42553C3.93753 11.8164 6.0609 13.6454 8.70402 14.1073C9.23645 14.1978 10.352 14.2072 10.8496 14.1229C12.1204 13.9045 13.2582 13.3738 14.06 12.6216C14.1677 12.5218 14.2565 12.45 14.2565 12.4687C14.2565 12.5124 13.6131 13.1242 13.3849 13.2927C12.4659 13.9825 11.3598 14.4257 10.1999 14.5693C9.81325 14.6161 9.02411 14.6067 8.60895 14.5537C7.1733 14.3664 5.8549 13.7234 4.83759 12.7059C4.28931 12.1628 3.95972 11.704 3.62061 11.0267C3.15474 10.0935 2.94874 9.14463 2.9836 8.09279C2.99627 7.69639 3.05332 7.10961 3.08184 7.10961C3.08501 7.10961 3.08184 7.38739 3.0755 7.7276ZM2.71104 8.19266C2.70154 8.22387 2.6952 8.20515 2.6952 8.15521C2.6952 8.10215 2.70154 8.0803 2.71104 8.09903C2.71738 8.12088 2.71738 8.16457 2.71104 8.19266ZM2.72055 9.05099C2.87584 10.983 3.92168 12.7465 5.58869 13.8888C6.31444 14.3851 7.26837 14.7846 8.14624 14.9563C8.74205 15.0749 9.16673 15.1092 9.7562 15.0905C11.0651 15.0437 12.1997 14.6816 13.2899 13.9575C13.629 13.7297 13.6353 13.7297 13.4642 13.8826C13.236 14.0886 12.8082 14.3882 12.4437 14.5942C11.6767 15.0343 10.7735 15.334 9.88297 15.4401C9.49633 15.49 8.70719 15.4807 8.28886 15.4276C5.83589 15.1124 3.78858 13.4238 3.00578 11.0798C2.74274 10.2901 2.654 9.71893 2.66351 8.87308C2.66668 8.57969 2.67301 8.4049 2.67935 8.48293C2.68252 8.56096 2.70154 8.8169 2.72055 9.05099Z" fill="url(#paint0_linear_3174_7344)"/>
<defs>
<linearGradient id="paint0_linear_3174_7344" x1="8.17128" y1="7.19999" x2="16.1441" y2="11.3608" gradientUnits="userSpaceOnUse">
<stop stop-color="#4DC760"/>
<stop offset="1" stop-color="#FFF854"/>
</linearGradient>
</defs>
</svg>
