<svg width="22" height="22" viewBox="0 0 22 22" fill="none" xmlns="http://www.w3.org/2000/svg">
<path d="M3.52064 4.93407L0.393641 1.80807L1.80864 0.393066L21.6076 20.1931L20.1926 21.6071L16.8826 18.2971C15.1239 19.4126 13.0834 20.0034 11.0006 20.0001C5.60864 20.0001 1.12264 16.1201 0.181641 11.0001C0.61167 8.67078 1.78327 6.54296 3.52164 4.93407H3.52064ZM13.7576 15.1721L12.2936 13.7081C11.7337 13.976 11.1044 14.0636 10.4926 13.9589C9.88073 13.8541 9.31644 13.5621 8.87751 13.1232C8.43858 12.6843 8.14661 12.12 8.04186 11.5081C7.9371 10.8963 8.02472 10.267 8.29264 9.70707L6.82864 8.24307C6.19236 9.20456 5.90791 10.3564 6.02347 11.5036C6.13903 12.6507 6.64749 13.7227 7.46276 14.5379C8.27803 15.3532 9.35 15.8617 10.4972 15.9772C11.6443 16.0928 12.7962 15.8084 13.7576 15.1721ZM6.97464 2.76007C8.22164 2.27007 9.58064 2.00007 11.0006 2.00007C16.3926 2.00007 20.8786 5.88007 21.8196 11.0001C21.5132 12.6658 20.8245 14.2376 19.8076 15.5921L15.9476 11.7321C16.0623 10.9597 15.9945 10.1712 15.7496 9.42972C15.5047 8.68827 15.0895 8.01448 14.5374 7.46233C13.9852 6.91019 13.3114 6.49504 12.57 6.25014C11.8285 6.00524 11.04 5.93741 10.2676 6.05207L6.97464 2.76107V2.76007Z" fill="#020202"/>
</svg>
